<svg width="90" height="90" viewBox="0 0 90 90" fill="none" xmlns="http://www.w3.org/2000/svg">
<path d="M37.5027 61.444C34.8718 59.2803 33.1905 56.0027 33.1905 52.3386C33.1905 51.8508 33.2234 51.3726 33.281 50.8999C33.3851 50.0462 33.5811 49.2213 33.8579 48.4334C34.0415 47.9127 34.2607 47.4098 34.5115 46.9261C34.0127 46.759 33.4934 46.6384 32.9576 46.5699C32.6849 46.5356 32.4081 46.5137 32.1272 46.5068C31.6038 46.7466 31.0571 46.9439 30.4911 47.0906C29.6978 47.2947 28.866 47.4044 28.0096 47.4044C26.5407 47.4044 25.1471 47.081 23.8906 46.5068C23.0644 46.5274 22.2682 46.6699 21.5201 46.9193C21.072 47.0686 20.6404 47.2564 20.2307 47.4797C19.8004 47.714 19.3935 47.9853 19.0153 48.2895C18.8892 48.3909 18.7659 48.4964 18.6467 48.6061C18.5507 48.6938 18.4576 48.7828 18.3658 48.8746C18.3301 48.9103 18.2959 48.9486 18.2603 48.9856C22.6629 50.0065 25.9542 53.9583 25.9542 58.6665C25.9542 61.4125 24.8347 63.9008 23.0287 65.7027C25.228 66.3783 27.1231 67.754 28.4536 69.5696C30.0033 65.6191 33.3604 62.5703 37.5014 61.4453L37.5027 61.444Z" fill="#DFAF89"/>
<path d="M20.6882 38.9704C20.7622 39.3349 20.8636 39.6911 20.9897 40.0337C21.0733 40.2625 21.1678 40.4859 21.2733 40.7038C21.3788 40.9216 21.4939 41.134 21.6186 41.3396C21.7433 41.5451 21.8776 41.7438 22.0215 41.9356C22.1654 42.1275 22.3175 42.3124 22.4778 42.4892C22.5586 42.5783 22.6408 42.6646 22.7258 42.7482C23.0642 43.0866 23.4342 43.3922 23.8316 43.6608C23.9316 43.7279 24.0316 43.7923 24.1344 43.8553C24.2372 43.9184 24.3413 43.9773 24.4468 44.0348C25.506 44.6104 26.7187 44.9365 28.0095 44.9365C28.8796 44.9365 29.7141 44.7857 30.491 44.5131C30.8651 44.3815 31.2268 44.2226 31.5722 44.0348C31.6777 43.9773 31.7818 43.917 31.8846 43.8553C31.9873 43.7923 32.0887 43.7279 32.1874 43.6608C32.4573 43.4785 32.7136 43.2771 32.9575 43.062C33.0287 42.9989 33.0986 42.9345 33.1671 42.8688C33.2644 42.7756 33.359 42.681 33.4508 42.5837C33.6344 42.3892 33.8084 42.1836 33.9715 41.9699C34.0523 41.863 34.1304 41.7534 34.2058 41.6424C34.2729 41.5424 34.3373 41.4423 34.4004 41.3396C34.4867 41.1984 34.5675 41.0545 34.6443 40.9066C35.18 39.8761 35.4829 38.7059 35.4829 37.4645C35.4829 36.2902 35.2115 35.1789 34.7278 34.1896C34.647 34.0238 34.5593 33.8621 34.4661 33.7031C34.3839 33.5606 34.2976 33.4209 34.2058 33.2852C33.9249 32.8686 33.6015 32.4836 33.2452 32.1328C33.1754 32.0643 33.1068 31.9972 33.0342 31.9314C32.8575 31.7711 32.6725 31.6176 32.4806 31.4751C31.2337 30.542 29.6853 29.9897 28.0095 29.9897C25.6883 29.9897 23.6137 31.049 22.2421 32.7097C22.09 32.8947 21.9461 33.0865 21.8118 33.2852C21.6776 33.4839 21.5529 33.6894 21.4378 33.9018C21.0349 34.6431 20.754 35.4598 20.6225 36.3258C20.5663 36.6971 20.5361 37.0767 20.5361 37.4645C20.5361 37.8509 20.5649 38.2318 20.6225 38.6032C20.6416 38.7265 20.6636 38.8498 20.6882 38.9718V38.9704Z" fill="#DFAF89"/>
<path d="M66.9687 65.7013C65.1627 63.9007 64.0432 61.411 64.0432 58.665C64.0432 53.9705 67.3154 50.0283 71.6988 48.9924C71.6605 48.9526 71.6235 48.9115 71.5851 48.8732C71.4933 48.7814 71.4001 48.6923 71.3042 48.6046C71.1124 48.4306 70.9123 48.2648 70.704 48.1099C70.4697 47.9345 70.2272 47.7729 69.9737 47.6235C69.8901 47.5742 69.8038 47.5248 69.7188 47.4782C68.6267 46.8849 67.3812 46.5383 66.0589 46.5054C64.8037 47.0795 63.4088 47.4029 61.9399 47.4029C61.0835 47.4029 60.2517 47.2946 59.4584 47.0891C58.8911 46.9425 58.3457 46.7452 57.8223 46.5054C57.5414 46.5122 57.2646 46.5328 56.9919 46.5684C56.4561 46.6369 55.9354 46.7575 55.438 46.9247C55.6902 47.4084 55.908 47.9113 56.0917 48.4319C56.3684 49.2198 56.5644 50.0447 56.6685 50.8984C56.7261 51.3698 56.759 51.8494 56.759 52.3372C56.759 56.0012 55.0777 59.2789 52.4468 61.4425C56.6028 62.573 59.9695 65.6396 61.511 69.6106C62.8443 67.7744 64.7503 66.3809 66.9674 65.6999L66.9687 65.7013Z" fill="#DFAF89"/>
<path d="M71.201 51.7274C70.8201 51.8809 70.4542 52.0631 70.1076 52.2742C70.0048 52.3372 69.9034 52.4016 69.8047 52.4687C69.3073 52.8044 68.8538 53.1991 68.4509 53.6403C68.2906 53.8171 68.1371 54.002 67.9946 54.1939C67.0615 55.4408 66.5093 56.9892 66.5093 58.665C66.5093 61.5028 68.0905 63.9706 70.42 65.2367C71.4723 65.8081 72.6754 66.1343 73.9566 66.1384C73.9648 66.1384 73.9744 66.1384 73.9826 66.1384C74.8377 66.1384 75.6571 65.9931 76.4231 65.7287C76.8122 65.5944 77.1877 65.43 77.5453 65.2367C79.8747 63.9706 81.456 61.5028 81.456 58.665C81.456 56.9878 80.9038 55.4408 79.9706 54.1939C79.8268 54.002 79.6747 53.8171 79.5143 53.6403C79.1129 53.1977 78.6579 52.8044 78.1605 52.4687C78.0605 52.4016 77.9605 52.3372 77.8577 52.2742C77.7097 52.1851 77.5604 52.1001 77.4055 52.0207C77.2507 51.9412 77.0945 51.8672 76.9355 51.7987C76.6163 51.6617 76.2847 51.5465 75.9435 51.4534C75.3186 51.2835 74.6609 51.1917 73.9826 51.1917C73.725 51.1917 73.4715 51.2054 73.2208 51.23C72.5137 51.3013 71.8354 51.4712 71.1997 51.7261L71.201 51.7274Z" fill="#DFAF89"/>
<path d="M55.5489 41.3396C55.6119 41.4423 55.6763 41.5437 55.7435 41.6424C56.012 42.0398 56.3176 42.4097 56.6561 42.7482C56.7643 42.8564 56.878 42.9606 56.9931 43.062C57.2371 43.2771 57.4933 43.4785 57.7632 43.6608C57.8633 43.7279 57.9633 43.7923 58.0661 43.8553C58.1688 43.9184 58.273 43.9773 58.3785 44.0348C58.7224 44.2226 59.0842 44.3815 59.4596 44.5131C60.2365 44.7871 61.071 44.9365 61.9411 44.9365C63.2305 44.9365 64.4446 44.6104 65.5038 44.0348C65.6093 43.9773 65.7134 43.917 65.8162 43.8553C65.919 43.7923 66.0204 43.7279 66.119 43.6608C66.4685 43.4251 66.7946 43.1593 67.0988 42.8688C67.1961 42.7756 67.2906 42.681 67.3824 42.5837C67.566 42.3892 67.74 42.1836 67.9031 41.9699C67.984 41.863 68.0621 41.7534 68.1374 41.6424C68.2046 41.5424 68.269 41.4423 68.332 41.3396C68.4183 41.1984 68.4992 41.0545 68.5759 40.9066C69.1117 39.8761 69.4145 38.7059 69.4145 37.4645C69.4145 36.0929 69.0432 34.8089 68.3978 33.7031C68.3156 33.5606 68.2292 33.4209 68.1374 33.2852C67.8017 32.7878 67.4071 32.3342 66.9659 31.9314C66.7891 31.7711 66.6041 31.6176 66.4123 31.4751C65.1653 30.542 63.617 29.9897 61.9411 29.9897C60.2653 29.9897 58.7169 30.542 57.47 31.4751C57.2782 31.619 57.0932 31.7711 56.9164 31.9314C56.8452 31.9972 56.7753 32.0643 56.7054 32.1328C56.689 32.1479 56.6725 32.163 56.6574 32.1794C56.319 32.5179 56.0134 32.8878 55.7449 33.2852C55.653 33.4209 55.5681 33.5606 55.4845 33.7031C55.3913 33.8621 55.3036 34.0238 55.2228 34.1896C54.7391 35.1789 54.4678 36.2902 54.4678 37.4645C54.4678 38.7059 54.7706 39.8761 55.3064 40.9066C55.3831 41.0532 55.4639 41.1984 55.5503 41.3396H55.5489Z" fill="#DFAF89"/>
<path d="M85.3627 72.6499C85.2942 72.4882 85.2188 72.3292 85.1394 72.173C84.9832 71.862 84.8092 71.5605 84.6159 71.2741C84.5282 71.144 84.4337 71.0165 84.3392 70.8905C84.2405 70.7617 84.1377 70.6356 84.0322 70.5136C83.8171 70.2643 83.5896 70.0272 83.3457 69.8066C83.1539 69.6326 82.9538 69.4668 82.7455 69.3119C82.5112 69.1365 82.2687 68.9749 82.0152 68.8255C81.9316 68.7762 81.8453 68.7268 81.7603 68.6802C81.2136 68.3829 80.6299 68.1486 80.0174 67.9842C79.4049 67.8197 78.7622 67.7252 78.1018 67.7087C77.566 67.954 77.0056 68.1541 76.4232 68.3021C75.6421 68.4994 74.8255 68.6063 73.9828 68.6063C73.9746 68.6063 73.965 68.6063 73.9567 68.6063C72.4974 68.6021 71.1135 68.2801 69.8652 67.7101C69.0389 67.7307 68.2428 67.8732 67.4946 68.1226C67.0466 68.2719 66.6149 68.4596 66.2052 68.683C66.1189 68.7296 66.0339 68.7775 65.9503 68.8282C65.6982 68.9776 65.4543 69.1407 65.22 69.3147C64.9076 69.5476 64.6143 69.8025 64.3389 70.0779C64.1978 70.219 64.0649 70.3657 63.9347 70.5164C63.8292 70.6383 63.7264 70.7644 63.6278 70.8932C63.5319 71.0179 63.4387 71.1453 63.351 71.2769C63.2784 71.3851 63.2085 71.4948 63.14 71.6057C63.0879 71.6921 63.0386 71.7798 62.9892 71.8688C62.933 71.9702 62.8796 72.073 62.8275 72.1758C62.7494 72.332 62.6727 72.4909 62.6042 72.6526C62.5165 72.8582 62.4398 73.0705 62.3699 73.2843C62.4014 73.631 62.4178 73.9818 62.4219 74.3353C62.4219 74.3887 62.4233 74.4408 62.4233 74.4942V85H85.9999V75.8069C85.9999 74.6888 85.7738 73.6241 85.3641 72.654L85.3627 72.6499Z" fill="#DFAF89"/>
<path d="M59.8624 73.0637C59.8103 72.6567 59.7363 72.2566 59.6404 71.8661C59.4719 71.1727 59.2375 70.5027 58.9457 69.8669C58.8868 69.7394 58.8265 69.6134 58.7634 69.4887C58.6374 69.2393 58.5017 68.9954 58.3578 68.7583C58.1729 68.4541 57.9742 68.1609 57.7618 67.8759C57.4302 67.4319 57.0657 67.0154 56.6738 66.6262C56.4381 66.3933 56.1915 66.1713 55.9352 65.9589C55.5255 65.6205 55.0912 65.3122 54.6362 65.0354C53.2386 64.1858 51.6381 63.6404 49.9253 63.4842C49.5978 63.4541 49.2662 63.4363 48.9305 63.4363C48.4537 63.6062 47.9617 63.7473 47.4588 63.8556C46.6586 64.0282 45.8282 64.1214 44.9773 64.1214C44.1264 64.1214 43.296 64.0282 42.4958 63.8556C41.9929 63.7473 41.501 63.6076 41.0241 63.4363C40.6884 63.4363 40.3568 63.4541 40.0293 63.4842C38.3165 63.6404 36.7147 64.1872 35.3184 65.0354C34.8621 65.3122 34.4291 65.6218 34.0194 65.9589C33.7467 66.1836 33.485 66.4221 33.2342 66.6728C33.1411 66.766 33.0479 66.8619 32.9575 66.9592C32.6861 67.2511 32.4313 67.5566 32.1915 67.8759C31.9791 68.1595 31.7804 68.4541 31.5954 68.7583C31.4515 68.9954 31.3159 69.2393 31.1898 69.4887C31.1268 69.6134 31.0651 69.7394 31.0076 69.8669C30.7157 70.5027 30.4814 71.1714 30.3129 71.8661C30.2265 72.221 30.1567 72.5813 30.106 72.9486C30.232 73.3994 30.3307 73.8598 30.3965 74.3325C30.4636 74.8135 30.5006 75.304 30.5006 75.8028V84.9958H59.9597V74.4901C59.9597 74.4367 59.9569 74.3846 59.9556 74.3312C59.9501 73.9023 59.9186 73.4789 59.8651 73.0623L59.8624 73.0637Z" fill="#DFAF89"/>
<path d="M54.1828 50.8998C54.1362 50.5984 54.0759 50.301 54.0005 50.0092C53.8594 49.4624 53.6689 48.9363 53.436 48.4334C53.377 48.3073 53.3154 48.1812 53.2524 48.0579C52.8783 47.3372 52.4151 46.6685 51.8739 46.0724C51.8643 46.0615 51.8533 46.0505 51.8424 46.0395C51.6505 45.8313 51.4505 45.6312 51.2422 45.4407C51.1312 45.3407 51.0188 45.2434 50.9037 45.1475C50.6735 44.957 50.4337 44.7789 50.1871 44.6117C49.9391 44.4446 49.6828 44.2884 49.4184 44.1445C49.1539 44.0006 48.8826 43.8704 48.6045 43.7526C47.4891 43.2812 46.2641 43.0209 44.9774 43.0209C43.6907 43.0209 42.4657 43.2812 41.3503 43.7526C41.0722 43.8704 40.7995 44.002 40.5364 44.1445C40.2719 44.2884 40.0157 44.4432 39.7677 44.6117C39.5197 44.7789 39.2799 44.9584 39.051 45.1475C38.9359 45.2421 38.8236 45.3407 38.7126 45.4407C38.5029 45.6312 38.3029 45.8313 38.1124 46.0395C38.1028 46.0505 38.0919 46.0615 38.0809 46.0724C37.5397 46.6685 37.0765 47.3358 36.7024 48.0579C36.638 48.1812 36.5764 48.3059 36.5188 48.4334C36.2859 48.9363 36.0954 49.4624 35.9543 50.0092C35.8789 50.301 35.8186 50.597 35.772 50.8998C35.772 50.9067 35.7693 50.9135 35.7679 50.919C35.7213 51.2273 35.6884 51.5411 35.672 51.859C35.6638 52.018 35.6597 52.1783 35.6597 52.3386C35.6597 55.6656 37.4054 58.5842 40.0294 60.2326C40.4843 60.519 40.9667 60.767 41.4709 60.9712C41.8039 61.1069 42.1464 61.2233 42.4959 61.3192C43.2865 61.5371 44.1182 61.6563 44.9774 61.6563C45.8365 61.6563 46.6683 61.5371 47.4589 61.3192C47.8097 61.2219 48.1523 61.1069 48.4839 60.9712C48.9881 60.7657 49.4691 60.519 49.9254 60.2326C52.5494 58.5842 54.2951 55.6656 54.2951 52.3386C54.2951 52.1783 54.291 52.018 54.2828 51.859C54.2663 51.5411 54.2348 51.2273 54.1869 50.919C54.1869 50.9122 54.1841 50.9053 54.1828 50.8998Z" fill="#DFAF89"/>
<path d="M27.5917 73.1706C27.5314 72.9952 27.467 72.8198 27.3943 72.6499C27.3258 72.4882 27.2505 72.3292 27.171 72.173C27.1189 72.0689 27.0655 71.9675 27.0093 71.8661C26.96 71.7784 26.9106 71.6893 26.8586 71.603C26.7914 71.492 26.7202 71.3824 26.6475 71.2741C26.5599 71.144 26.4653 71.0165 26.3708 70.8905C26.2721 70.7617 26.1693 70.6356 26.0638 70.5136C25.8487 70.2643 25.6212 70.0272 25.3773 69.8066C25.1855 69.6326 24.9854 69.4668 24.7772 69.3119C24.5428 69.1365 24.3003 68.9749 24.0468 68.8255C23.9632 68.7762 23.8769 68.7268 23.7919 68.6802C23.2452 68.3829 22.6615 68.1486 22.049 67.9842C21.4365 67.8197 20.7938 67.7252 20.1334 67.7087C18.8782 68.2829 17.4833 68.6063 16.0144 68.6063C16.0075 68.6063 16.0007 68.6063 15.9938 68.6063C15.1429 68.6049 14.3166 68.4953 13.5274 68.2911C12.9628 68.1445 12.4188 67.9485 11.8968 67.7101C11.0363 67.7307 10.2086 67.8855 9.43442 68.1554C9.30562 68.2007 9.17819 68.2486 9.05212 68.2993C8.8 68.4021 8.55472 68.5158 8.3163 68.6419C8.07787 68.7679 7.8463 68.905 7.62295 69.0543C7.3996 69.2037 7.1831 69.3626 6.97619 69.5312C6.66514 69.7847 6.37328 70.0615 6.10334 70.3588C5.6676 70.8384 5.28804 71.3701 4.97699 71.9442C4.86052 72.1593 4.75227 72.3799 4.65498 72.6074C4.59058 72.7581 4.52892 72.9116 4.47411 73.0664C4.36175 73.3775 4.26857 73.6967 4.19595 74.0242C4.06714 74.597 4 75.1931 4 75.8042V84.9972H28.0315V75.8042C28.0315 75.3013 27.9835 74.8108 27.8958 74.3339C27.8232 73.9352 27.7205 73.5474 27.5917 73.1719V73.1706Z" fill="#DFAF89"/>
<path d="M10.5896 63.8062C10.8828 64.1159 11.2021 64.3995 11.5433 64.6544C11.7351 64.7983 11.9338 64.9326 12.1394 65.0572C12.2421 65.1203 12.3463 65.1792 12.4518 65.2367C12.5573 65.2943 12.6655 65.3491 12.7738 65.4012C13.0177 65.519 13.2684 65.6218 13.5261 65.7122C13.844 65.8246 14.1714 65.9178 14.5072 65.9863C14.7511 66.0356 14.9977 66.074 15.2498 66.1C15.4937 66.1247 15.7418 66.137 15.9925 66.1384C15.9994 66.1384 16.0062 66.1384 16.0131 66.1384C17.3025 66.1384 18.5165 65.8123 19.5757 65.2367C21.9052 63.9706 23.4864 61.5028 23.4864 58.665C23.4864 56.9878 22.9342 55.4408 22.0011 54.1939C21.8572 54.002 21.7051 53.8171 21.5448 53.6403C21.1433 53.1977 20.6884 52.8044 20.191 52.4687C20.0909 52.4016 19.9909 52.3372 19.8881 52.2742C19.536 52.0604 19.166 51.8754 18.7796 51.7206C18.1356 51.4643 17.4463 51.2944 16.7283 51.2259C16.4927 51.204 16.2542 51.1917 16.0131 51.1917C15.3156 51.1917 14.6401 51.2889 13.9988 51.4684C13.5028 51.6068 13.0259 51.7946 12.5765 52.0261C12.4271 52.1029 12.2805 52.1865 12.1366 52.2728C12.0023 52.355 11.8694 52.4413 11.7406 52.5304C11.483 52.7099 11.2364 52.9058 11.0034 53.1169C10.9459 53.1689 10.8883 53.2224 10.8308 53.2772C9.41666 54.6365 8.53833 56.548 8.53833 58.6636C8.53833 60.5012 9.20153 62.1852 10.3018 63.4869C10.3937 63.5952 10.4882 63.7007 10.5855 63.8048L10.5896 63.8062Z" fill="#DFAF89"/>
</svg>
