<svg width="90" height="90" viewBox="0 0 90 90" fill="none" xmlns="http://www.w3.org/2000/svg">
<path d="M38.1249 25.0953C38.2592 25.4008 38.4126 25.6954 38.5839 25.9777C38.6469 26.0805 38.7113 26.1819 38.7785 26.2805C39.0471 26.6779 39.3526 27.0479 39.6911 27.3863C39.776 27.4713 39.8624 27.5535 39.9501 27.6343C40.1268 27.7947 40.3118 27.9481 40.5036 28.0906C40.7914 28.3058 41.0956 28.5003 41.4135 28.673C42.4727 29.2485 43.6854 29.5746 44.9761 29.5746C46.2669 29.5746 47.4796 29.2485 48.5388 28.673C48.8567 28.5003 49.1609 28.3058 49.4486 28.0906C49.6405 27.9468 49.8255 27.7947 50.0022 27.6343C50.4448 27.2329 50.8381 26.7779 51.1738 26.2805C51.2409 26.1805 51.3053 26.0805 51.3684 25.9777C51.5397 25.6954 51.6931 25.4008 51.8274 25.0953C52.2289 24.1786 52.4509 23.1673 52.4509 22.1026C52.4509 21.0379 52.2289 20.0267 51.8274 19.11C51.6931 18.8044 51.5397 18.5098 51.3684 18.2276C51.3053 18.1248 51.2409 18.0234 51.1738 17.9247C50.8381 17.4273 50.4435 16.9738 50.0022 16.5709C49.8255 16.4106 49.6405 16.2571 49.4486 16.1146C48.2017 15.1815 46.6533 14.6293 44.9775 14.6293C43.3017 14.6293 41.7533 15.1815 40.5064 16.1146C40.3145 16.2585 40.1296 16.4106 39.9528 16.5709C39.8637 16.6518 39.7774 16.734 39.6938 16.8189C39.3554 17.1574 39.0498 17.5274 38.7812 17.9247C38.7141 18.0248 38.6497 18.1248 38.5866 18.2276C38.4154 18.5098 38.2619 18.8044 38.1276 19.11C37.7261 20.0267 37.5042 21.0379 37.5042 22.1026C37.5042 23.1673 37.7261 24.1786 38.1276 25.0953H38.1249Z" fill="#DFAF89"/>
<path d="M37.9508 37.4646C37.9508 40.2106 36.8313 42.699 35.0253 44.5009C35.3267 44.594 35.6213 44.7009 35.9105 44.8188C38.0741 42.2153 41.3339 40.5559 44.9747 40.5559C48.6154 40.5559 51.8753 42.2166 54.0389 44.8188C54.328 44.7009 54.6226 44.594 54.9241 44.5009C53.1181 42.7003 51.9986 40.2106 51.9986 37.4646C51.9986 35.6476 52.4905 33.9444 53.3456 32.4769C53.262 32.4221 53.177 32.3659 53.0907 32.3138C52.9797 32.2467 52.866 32.1809 52.7509 32.1192C52.4069 31.9329 52.0479 31.7698 51.6752 31.6328C50.8668 31.3368 49.9967 31.1683 49.0909 31.1464C47.8358 31.7205 46.4408 32.0439 44.9719 32.0439C43.503 32.0439 42.1095 31.7205 40.853 31.1464C39.9472 31.1683 39.0771 31.3368 38.2687 31.6328C37.896 31.7685 37.5369 31.9315 37.193 32.1192C37.0779 32.1809 36.9655 32.2467 36.8532 32.3138C36.7669 32.3659 36.6833 32.4221 36.5983 32.4769C37.4534 33.9444 37.9453 35.6476 37.9453 37.4646H37.9508Z" fill="#DFAF89"/>
<path d="M37.5027 61.444C34.8718 59.2803 33.1905 56.0027 33.1905 52.3386C33.1905 51.8508 33.2234 51.3726 33.2809 50.8999C33.3851 50.0462 33.581 49.2213 33.8578 48.4334C34.0414 47.9127 34.2606 47.4098 34.5114 46.9261C34.0126 46.759 33.4933 46.6384 32.9575 46.5699C32.6849 46.5356 32.4081 46.5137 32.1272 46.5068C31.6037 46.7466 31.057 46.9439 30.4911 47.0906C29.6977 47.2947 28.866 47.4044 28.0095 47.4044C26.5406 47.4044 25.1471 47.081 23.8906 46.5068C23.0643 46.5274 22.2682 46.6699 21.52 46.9193C21.072 47.0686 20.6403 47.2564 20.2306 47.4797C19.8004 47.714 19.3934 47.9853 19.0152 48.2895C18.8891 48.3909 18.7658 48.4964 18.6466 48.6061C18.5507 48.6938 18.4575 48.7828 18.3657 48.8746C18.3301 48.9103 18.2958 48.9486 18.2602 48.9856C22.6628 50.0065 25.9542 53.9583 25.9542 58.6665C25.9542 61.4125 24.8347 63.9008 23.0287 65.7027C25.2279 66.3783 27.123 67.754 28.4535 69.5696C30.0033 65.6191 33.3604 62.5703 37.5013 61.4453L37.5027 61.444Z" fill="#DFAF89"/>
<path d="M20.6883 38.9705C20.7623 39.335 20.8637 39.6913 20.9897 40.0338C21.0733 40.2627 21.1679 40.486 21.2734 40.7039C21.3789 40.9217 21.494 41.1341 21.6187 41.3397C21.7434 41.5452 21.8777 41.7439 22.0215 41.9357C22.1654 42.1276 22.3175 42.3126 22.4778 42.4893C22.5587 42.5784 22.6409 42.6647 22.7259 42.7483C23.0643 43.0868 23.4343 43.3923 23.8317 43.6609C23.9317 43.728 24.0317 43.7924 24.1345 43.8555C24.2372 43.9185 24.3414 43.9774 24.4469 44.035C25.5061 44.6105 26.7188 44.9366 28.0096 44.9366C28.8797 44.9366 29.7142 44.7859 30.4911 44.5132C30.8652 44.3816 31.2269 44.2227 31.5722 44.035C31.6777 43.9774 31.7819 43.9171 31.8846 43.8555C31.9874 43.7924 32.0888 43.728 32.1875 43.6609C32.4574 43.4786 32.7136 43.2772 32.9575 43.0621C33.0288 42.9991 33.0987 42.9347 33.1672 42.8689C33.2645 42.7757 33.359 42.6812 33.4508 42.5839C33.6344 42.3893 33.8085 42.1838 33.9715 41.97C34.0524 41.8631 34.1305 41.7535 34.2058 41.6425C34.273 41.5425 34.3374 41.4424 34.4004 41.3397C34.4867 41.1985 34.5676 41.0547 34.6443 40.9067C35.1801 39.8762 35.4829 38.706 35.4829 37.4646C35.4829 36.2903 35.2116 35.179 34.7279 34.1897C34.6471 34.0239 34.5594 33.8622 34.4662 33.7033C34.384 33.5607 34.2976 33.421 34.2058 33.2853C33.9249 32.8688 33.6016 32.4837 33.2453 32.1329C33.1754 32.0644 33.1069 31.9973 33.0343 31.9315C32.8575 31.7712 32.6725 31.6177 32.4807 31.4752C31.2338 30.5421 29.6854 29.9899 28.0096 29.9899C25.6883 29.9899 23.6138 31.0491 22.2422 32.7098C22.0901 32.8948 21.9462 33.0866 21.8119 33.2853C21.6776 33.484 21.5529 33.6896 21.4378 33.9019C21.035 34.6432 20.7541 35.4599 20.6225 36.3259C20.5663 36.6973 20.5362 37.0768 20.5362 37.4646C20.5362 37.851 20.565 38.2319 20.6225 38.6033C20.6417 38.7266 20.6636 38.8499 20.6883 38.9719V38.9705Z" fill="#DFAF89"/>
<path d="M66.9686 65.7014C65.1626 63.9009 64.0431 61.4111 64.0431 58.6651C64.0431 53.9706 67.3153 50.0284 71.6987 48.9925C71.6604 48.9528 71.6234 48.9117 71.585 48.8733C71.4932 48.7815 71.4 48.6924 71.3041 48.6047C71.1122 48.4307 70.9122 48.2649 70.7039 48.1101C70.4696 47.9347 70.2271 47.773 69.9736 47.6236C69.89 47.5743 69.8037 47.525 69.7187 47.4784C68.6266 46.8851 67.381 46.5384 66.0588 46.5055C64.8036 47.0796 63.4087 47.403 61.9398 47.403C61.0834 47.403 60.2516 47.2948 59.4582 47.0892C58.891 46.9426 58.3456 46.7453 57.8222 46.5055C57.5413 46.5123 57.2645 46.5329 56.9918 46.5685C56.456 46.637 55.9353 46.7576 55.4379 46.9248C55.69 47.4085 55.9079 47.9114 56.0915 48.4321C56.3683 49.22 56.5643 50.0449 56.6684 50.8985C56.726 51.3699 56.7588 51.8495 56.7588 52.3373C56.7588 56.0013 55.0775 59.279 52.4467 61.4426C56.6026 62.5731 59.9693 65.6397 61.5109 69.6107C62.8441 67.7746 64.7502 66.381 66.9672 65.7L66.9686 65.7014Z" fill="#DFAF89"/>
<path d="M71.2011 51.7275C70.8202 51.881 70.4544 52.0633 70.1077 52.2743C70.0049 52.3373 69.9035 52.4017 69.8049 52.4688C69.3075 52.8046 68.8539 53.1992 68.451 53.6404C68.2907 53.8172 68.1373 54.0022 67.9948 54.194C67.0616 55.4409 66.5094 56.9893 66.5094 58.6651C66.5094 61.5029 68.0907 63.9708 70.4201 65.2369C71.4725 65.8083 72.6755 66.1344 73.9567 66.1385C73.9649 66.1385 73.9745 66.1385 73.9828 66.1385C74.8378 66.1385 75.6572 65.9933 76.4232 65.7288C76.8123 65.5945 77.1878 65.4301 77.5454 65.2369C79.8748 63.9708 81.4561 61.5029 81.4561 58.6651C81.4561 56.9879 80.9039 55.4409 79.9708 54.194C79.8269 54.0022 79.6748 53.8172 79.5145 53.6404C79.113 53.1978 78.6581 52.8046 78.1607 52.4688C78.0606 52.4017 77.9606 52.3373 77.8578 52.2743C77.7099 52.1852 77.5605 52.1003 77.4056 52.0208C77.2508 51.9413 77.0946 51.8673 76.9357 51.7988C76.6164 51.6618 76.2848 51.5467 75.9436 51.4535C75.3188 51.2836 74.661 51.1918 73.9828 51.1918C73.7252 51.1918 73.4717 51.2055 73.2209 51.2301C72.5138 51.3014 71.8356 51.4713 71.1998 51.7262L71.2011 51.7275Z" fill="#DFAF89"/>
<path d="M55.5488 41.3397C55.6118 41.4424 55.6762 41.5438 55.7434 41.6425C56.0119 42.0399 56.3175 42.4098 56.6559 42.7483C56.7642 42.8565 56.8779 42.9607 56.993 43.0621C57.2369 43.2772 57.4932 43.4786 57.7631 43.6609C57.8631 43.728 57.9632 43.7924 58.0659 43.8555C58.1687 43.9185 58.2728 43.9774 58.3784 44.035C58.7223 44.2227 59.084 44.3816 59.4595 44.5132C60.2364 44.7872 61.0709 44.9366 61.941 44.9366C63.2304 44.9366 64.4445 44.6105 65.5037 44.035C65.6092 43.9774 65.7133 43.9171 65.8161 43.8555C65.9189 43.7924 66.0203 43.728 66.1189 43.6609C66.4683 43.4252 66.7944 43.1594 67.0986 42.8689C67.1959 42.7757 67.2905 42.6812 67.3823 42.5839C67.5659 42.3893 67.7399 42.1838 67.903 41.97C67.9838 41.8631 68.0619 41.7535 68.1373 41.6425C68.2044 41.5425 68.2688 41.4424 68.3319 41.3397C68.4182 41.1985 68.499 41.0547 68.5758 40.9067C69.1115 39.8762 69.4144 38.706 69.4144 37.4646C69.4144 36.093 69.043 34.809 68.3976 33.7033C68.3154 33.5607 68.2291 33.421 68.1373 33.2853C67.8016 32.7879 67.407 32.3344 66.9657 31.9315C66.789 31.7712 66.604 31.6177 66.4121 31.4752C65.1652 30.5421 63.6168 29.9899 61.941 29.9899C60.2652 29.9899 58.7168 30.5421 57.4699 31.4752C57.278 31.6191 57.0931 31.7712 56.9163 31.9315C56.845 31.9973 56.7752 32.0644 56.7053 32.1329C56.6888 32.148 56.6724 32.1631 56.6573 32.1795C56.3189 32.518 56.0133 32.888 55.7447 33.2853C55.6529 33.421 55.568 33.5607 55.4844 33.7033C55.3912 33.8622 55.3035 34.0239 55.2227 34.1897C54.739 35.179 54.4677 36.2903 54.4677 37.4646C54.4677 38.706 54.7705 39.8762 55.3062 40.9067C55.383 41.0533 55.4638 41.1985 55.5502 41.3397H55.5488Z" fill="#DFAF89"/>
<path d="M85.3627 72.6499C85.2942 72.4882 85.2188 72.3292 85.1394 72.173C84.9832 71.862 84.8092 71.5605 84.6159 71.2741C84.5282 71.144 84.4337 71.0165 84.3392 70.8905C84.2405 70.7617 84.1377 70.6356 84.0322 70.5136C83.8171 70.2643 83.5896 70.0272 83.3457 69.8066C83.1539 69.6326 82.9538 69.4668 82.7455 69.3119C82.5112 69.1365 82.2687 68.9749 82.0152 68.8255C81.9316 68.7762 81.8453 68.7268 81.7603 68.6802C81.2136 68.3829 80.6299 68.1486 80.0174 67.9842C79.4049 67.8197 78.7622 67.7252 78.1018 67.7087C77.566 67.954 77.0056 68.1541 76.4232 68.3021C75.6421 68.4994 74.8255 68.6063 73.9828 68.6063C73.9746 68.6063 73.965 68.6063 73.9567 68.6063C72.4974 68.6021 71.1135 68.2801 69.8652 67.7101C69.0389 67.7307 68.2428 67.8732 67.4946 68.1226C67.0466 68.2719 66.6149 68.4596 66.2052 68.683C66.1189 68.7296 66.0339 68.7775 65.9503 68.8282C65.6982 68.9776 65.4543 69.1407 65.22 69.3147C64.9076 69.5476 64.6143 69.8025 64.3389 70.0779C64.1978 70.219 64.0649 70.3657 63.9347 70.5164C63.8292 70.6383 63.7264 70.7644 63.6278 70.8932C63.5319 71.0179 63.4387 71.1453 63.351 71.2769C63.2784 71.3851 63.2085 71.4948 63.14 71.6057C63.0879 71.6921 63.0386 71.7798 62.9892 71.8688C62.933 71.9702 62.8796 72.073 62.8275 72.1758C62.7494 72.332 62.6727 72.4909 62.6042 72.6526C62.5165 72.8582 62.4398 73.0705 62.3699 73.2843C62.4014 73.631 62.4178 73.9818 62.4219 74.3353C62.4219 74.3887 62.4233 74.4408 62.4233 74.4942V85H85.9999V75.8069C85.9999 74.6888 85.7738 73.6241 85.3641 72.654L85.3627 72.6499Z" fill="#DFAF89"/>
<path d="M59.8624 73.0637C59.8103 72.6567 59.7363 72.2566 59.6404 71.8661C59.4719 71.1727 59.2375 70.5027 58.9457 69.8669C58.8868 69.7394 58.8265 69.6134 58.7634 69.4887C58.6374 69.2393 58.5017 68.9954 58.3578 68.7583C58.1729 68.4541 57.9742 68.1609 57.7618 67.8759C57.4302 67.4319 57.0657 67.0154 56.6738 66.6262C56.4381 66.3933 56.1915 66.1713 55.9352 65.9589C55.5255 65.6205 55.0912 65.3122 54.6362 65.0354C53.2386 64.1858 51.6381 63.6404 49.9253 63.4842C49.5978 63.4541 49.2662 63.4363 48.9305 63.4363C48.4537 63.6062 47.9617 63.7473 47.4588 63.8556C46.6586 64.0282 45.8282 64.1214 44.9773 64.1214C44.1264 64.1214 43.296 64.0282 42.4958 63.8556C41.9929 63.7473 41.501 63.6076 41.0241 63.4363C40.6884 63.4363 40.3568 63.4541 40.0293 63.4842C38.3165 63.6404 36.7147 64.1872 35.3184 65.0354C34.8621 65.3122 34.4291 65.6218 34.0194 65.9589C33.7467 66.1836 33.485 66.4221 33.2342 66.6728C33.1411 66.766 33.0479 66.8619 32.9575 66.9592C32.6861 67.2511 32.4313 67.5566 32.1915 67.8759C31.9791 68.1595 31.7804 68.4541 31.5954 68.7583C31.4515 68.9954 31.3159 69.2393 31.1898 69.4887C31.1268 69.6134 31.0651 69.7394 31.0076 69.8669C30.7157 70.5027 30.4814 71.1714 30.3129 71.8661C30.2265 72.221 30.1567 72.5813 30.106 72.9486C30.232 73.3994 30.3307 73.8598 30.3965 74.3325C30.4636 74.8135 30.5006 75.304 30.5006 75.8028V84.9958H59.9597V74.4901C59.9597 74.4367 59.9569 74.3846 59.9556 74.3312C59.9501 73.9023 59.9186 73.4789 59.8651 73.0623L59.8624 73.0637Z" fill="#DFAF89"/>
<path d="M54.1829 50.8998C54.1363 50.5984 54.076 50.301 54.0006 50.0092C53.8595 49.4624 53.669 48.9363 53.4361 48.4334C53.3772 48.3073 53.3155 48.1812 53.2525 48.0579C52.8784 47.3372 52.4153 46.6685 51.874 46.0724C51.8644 46.0615 51.8534 46.0505 51.8425 46.0395C51.6506 45.8313 51.4506 45.6312 51.2423 45.4407C51.1313 45.3407 51.019 45.2434 50.9039 45.1475C50.6737 44.957 50.4339 44.7789 50.1872 44.6117C49.9392 44.4446 49.683 44.2884 49.4185 44.1445C49.154 44.0006 48.8827 43.8704 48.6046 43.7526C47.4892 43.2812 46.2642 43.0209 44.9775 43.0209C43.6908 43.0209 42.4658 43.2812 41.3505 43.7526C41.0723 43.8704 40.7996 44.002 40.5365 44.1445C40.2721 44.2884 40.0158 44.4432 39.7678 44.6117C39.5198 44.7789 39.28 44.9584 39.0512 45.1475C38.9361 45.2421 38.8237 45.3407 38.7127 45.4407C38.5031 45.6312 38.303 45.8313 38.1125 46.0395C38.103 46.0505 38.092 46.0615 38.081 46.0724C37.5398 46.6685 37.0766 47.3358 36.7026 48.0579C36.6382 48.1812 36.5765 48.3059 36.5189 48.4334C36.286 48.9363 36.0955 49.4624 35.9544 50.0092C35.879 50.301 35.8187 50.597 35.7722 50.8998C35.7722 50.9067 35.7694 50.9135 35.768 50.919C35.7215 51.2273 35.6886 51.5411 35.6721 51.859C35.6639 52.018 35.6598 52.1783 35.6598 52.3386C35.6598 55.6656 37.4055 58.5842 40.0295 60.2326C40.4845 60.519 40.9668 60.767 41.471 60.9712C41.804 61.1069 42.1466 61.2233 42.496 61.3192C43.2866 61.5371 44.1184 61.6563 44.9775 61.6563C45.8367 61.6563 46.6684 61.5371 47.459 61.3192C47.8098 61.2219 48.1524 61.1069 48.484 60.9712C48.9882 60.7657 49.4692 60.519 49.9255 60.2326C52.5495 58.5842 54.2952 55.6656 54.2952 52.3386C54.2952 52.1783 54.2911 52.018 54.2829 51.859C54.2665 51.5411 54.2349 51.2273 54.187 50.919C54.187 50.9122 54.1842 50.9053 54.1829 50.8998Z" fill="#DFAF89"/>
<path d="M27.5917 73.1706C27.5314 72.9952 27.467 72.8198 27.3943 72.6499C27.3258 72.4882 27.2505 72.3292 27.171 72.173C27.1189 72.0689 27.0655 71.9675 27.0093 71.8661C26.96 71.7784 26.9106 71.6893 26.8586 71.603C26.7914 71.492 26.7202 71.3824 26.6475 71.2741C26.5599 71.144 26.4653 71.0165 26.3708 70.8905C26.2721 70.7617 26.1693 70.6356 26.0638 70.5136C25.8487 70.2643 25.6212 70.0272 25.3773 69.8066C25.1855 69.6326 24.9854 69.4668 24.7772 69.3119C24.5428 69.1365 24.3003 68.9749 24.0468 68.8255C23.9632 68.7762 23.8769 68.7268 23.7919 68.6802C23.2452 68.3829 22.6615 68.1486 22.049 67.9842C21.4365 67.8197 20.7938 67.7252 20.1334 67.7087C18.8782 68.2829 17.4833 68.6063 16.0144 68.6063C16.0075 68.6063 16.0007 68.6063 15.9938 68.6063C15.1429 68.6049 14.3166 68.4953 13.5274 68.2911C12.9628 68.1445 12.4188 67.9485 11.8968 67.7101C11.0363 67.7307 10.2086 67.8855 9.43442 68.1554C9.30562 68.2007 9.17819 68.2486 9.05212 68.2993C8.8 68.4021 8.55472 68.5158 8.3163 68.6419C8.07787 68.7679 7.8463 68.905 7.62295 69.0543C7.3996 69.2037 7.1831 69.3626 6.97619 69.5312C6.66514 69.7847 6.37328 70.0615 6.10334 70.3588C5.6676 70.8384 5.28804 71.3701 4.97699 71.9442C4.86052 72.1593 4.75227 72.3799 4.65498 72.6074C4.59058 72.7581 4.52892 72.9116 4.47411 73.0664C4.36175 73.3775 4.26857 73.6967 4.19595 74.0242C4.06714 74.597 4 75.1931 4 75.8042V84.9972H28.0315V75.8042C28.0315 75.3013 27.9835 74.8108 27.8958 74.3339C27.8232 73.9352 27.7205 73.5474 27.5917 73.1719V73.1706Z" fill="#DFAF89"/>
<path d="M10.5895 63.8063C10.8828 64.116 11.202 64.3996 11.5432 64.6545C11.7351 64.7984 11.9338 64.9327 12.1393 65.0574C12.2421 65.1204 12.3462 65.1793 12.4517 65.2369C12.5572 65.2944 12.6655 65.3492 12.7737 65.4013C13.0176 65.5191 13.2684 65.6219 13.526 65.7123C13.8439 65.8247 14.1714 65.9179 14.5071 65.9864C14.751 66.0357 14.9976 66.0741 15.2498 66.1001C15.4937 66.1248 15.7417 66.1371 15.9924 66.1385C15.9993 66.1385 16.0062 66.1385 16.013 66.1385C17.3024 66.1385 18.5165 65.8124 19.5757 65.2369C21.9051 63.9708 23.4864 61.5029 23.4864 58.6651C23.4864 56.9879 22.9342 55.4409 22.001 54.194C21.8571 54.0022 21.705 53.8172 21.5447 53.6404C21.1432 53.1978 20.6883 52.8046 20.1909 52.4688C20.0909 52.4017 19.9908 52.3373 19.8881 52.2743C19.5359 52.0605 19.166 51.8755 18.7795 51.7207C18.1355 51.4645 17.4463 51.2945 16.7283 51.226C16.4926 51.2041 16.2542 51.1918 16.013 51.1918C15.3155 51.1918 14.64 51.2891 13.9987 51.4686C13.5027 51.607 13.0258 51.7947 12.5764 52.0263C12.427 52.103 12.2804 52.1866 12.1366 52.2729C12.0023 52.3551 11.8694 52.4414 11.7406 52.5305C11.4829 52.71 11.2363 52.906 11.0034 53.117C10.9458 53.1691 10.8883 53.2225 10.8307 53.2773C9.4166 54.6366 8.53827 56.5481 8.53827 58.6638C8.53827 60.5013 9.20147 62.1853 10.3018 63.4871C10.3936 63.5953 10.4881 63.7008 10.5854 63.805L10.5895 63.8063Z" fill="#DFAF89"/>
</svg>
