<svg width="90" height="90" viewBox="0 0 90 90" fill="none" xmlns="http://www.w3.org/2000/svg">
<path d="M71.2011 51.7275C70.8202 51.881 70.4544 52.0633 70.1077 52.2743C70.0049 52.3373 69.9035 52.4017 69.8049 52.4688C69.3075 52.8046 68.8539 53.1992 68.451 53.6404C68.2907 53.8172 68.1373 54.0022 67.9948 54.194C67.0616 55.4409 66.5094 56.9893 66.5094 58.6651C66.5094 61.5029 68.0907 63.9708 70.4201 65.2369C71.4725 65.8083 72.6755 66.1344 73.9567 66.1385C73.9649 66.1385 73.9745 66.1385 73.9828 66.1385C74.8378 66.1385 75.6572 65.9933 76.4232 65.7288C76.8123 65.5945 77.1878 65.4301 77.5454 65.2369C79.8748 63.9708 81.4561 61.5029 81.4561 58.6651C81.4561 56.9879 80.9039 55.4409 79.9708 54.194C79.8269 54.0022 79.6748 53.8172 79.5145 53.6404C79.113 53.1978 78.6581 52.8046 78.1607 52.4688C78.0606 52.4017 77.9606 52.3373 77.8578 52.2743C77.7099 52.1852 77.5605 52.1003 77.4056 52.0208C77.2508 51.9413 77.0946 51.8673 76.9357 51.7988C76.6164 51.6618 76.2848 51.5467 75.9436 51.4535C75.3188 51.2836 74.661 51.1918 73.9828 51.1918C73.7252 51.1918 73.4717 51.2055 73.2209 51.2301C72.5138 51.3014 71.8356 51.4713 71.1998 51.7262L71.2011 51.7275Z" fill="#DFAF89"/>
<path d="M85.3627 72.65C85.2942 72.4883 85.2188 72.3294 85.1394 72.1732C84.9832 71.8621 84.8092 71.5606 84.6159 71.2743C84.5282 71.1441 84.4337 71.0167 84.3392 70.8906C84.2405 70.7618 84.1377 70.6357 84.0322 70.5138C83.8171 70.2644 83.5896 70.0273 83.3457 69.8067C83.1539 69.6327 82.9538 69.4669 82.7455 69.3121C82.5112 69.1367 82.2687 68.975 82.0152 68.8256C81.9316 68.7763 81.8453 68.727 81.7603 68.6804C81.2136 68.383 80.6299 68.1487 80.0174 67.9843C79.4049 67.8199 78.7622 67.7253 78.1018 67.7089C77.566 67.9541 77.0056 68.1542 76.4232 68.3022C75.6421 68.4995 74.8255 68.6064 73.9828 68.6064C73.9746 68.6064 73.965 68.6064 73.9567 68.6064C72.4974 68.6023 71.1135 68.2803 69.8652 67.7102C69.0389 67.7308 68.2428 67.8733 67.4946 68.1227C67.0466 68.272 66.6149 68.4598 66.2052 68.6831C66.1189 68.7297 66.0339 68.7777 65.9503 68.8284C65.6982 68.9777 65.4543 69.1408 65.22 69.3148C64.9076 69.5477 64.6143 69.8026 64.3389 70.078C64.1978 70.2192 64.0649 70.3658 63.9347 70.5165C63.8292 70.6385 63.7264 70.7645 63.6278 70.8933C63.5319 71.018 63.4387 71.1455 63.351 71.277C63.2784 71.3853 63.2085 71.4949 63.14 71.6059C63.0879 71.6922 63.0386 71.7799 62.9892 71.869C62.933 71.9704 62.8796 72.0731 62.8275 72.1759C62.7494 72.3321 62.6727 72.491 62.6042 72.6527C62.5165 72.8583 62.4398 73.0707 62.3699 73.2844C62.4014 73.6311 62.4178 73.9819 62.4219 74.3354C62.4219 74.3889 62.4233 74.4409 62.4233 74.4944V85.0001H85.9999V75.8071C85.9999 74.6889 85.7738 73.6242 85.3641 72.6541L85.3627 72.65Z" fill="#DFAF89"/>
<path d="M59.8624 73.0638C59.8103 72.6568 59.7363 72.2567 59.6404 71.8662C59.4719 71.1729 59.2375 70.5028 58.9457 69.867C58.8868 69.7396 58.8265 69.6135 58.7634 69.4888C58.6374 69.2394 58.5017 68.9955 58.3578 68.7585C58.1729 68.4543 57.9742 68.161 57.7618 67.876C57.4302 67.4321 57.0657 67.0155 56.6738 66.6264C56.4381 66.3934 56.1915 66.1714 55.9352 65.959C55.5255 65.6206 55.0912 65.3123 54.6362 65.0355C53.2386 64.1859 51.6381 63.6406 49.9253 63.4844C49.5978 63.4542 49.2662 63.4364 48.9305 63.4364C48.4537 63.6063 47.9617 63.7474 47.4588 63.8557C46.6586 64.0284 45.8282 64.1215 44.9773 64.1215C44.1264 64.1215 43.296 64.0284 42.4958 63.8557C41.9929 63.7474 41.501 63.6077 41.0241 63.4364C40.6884 63.4364 40.3568 63.4542 40.0293 63.4844C38.3165 63.6406 36.7147 64.1873 35.3184 65.0355C34.8621 65.3123 34.4291 65.622 34.0194 65.959C33.7467 66.1838 33.485 66.4222 33.2342 66.6729C33.1411 66.7661 33.0479 66.862 32.9575 66.9593C32.6861 67.2512 32.4313 67.5568 32.1915 67.876C31.9791 68.1597 31.7804 68.4543 31.5954 68.7585C31.4515 68.9955 31.3159 69.2394 31.1898 69.4888C31.1268 69.6135 31.0651 69.7396 31.0076 69.867C30.7157 70.5028 30.4814 71.1715 30.3129 71.8662C30.2265 72.2211 30.1567 72.5815 30.106 72.9487C30.232 73.3995 30.3307 73.8599 30.3965 74.3327C30.4636 74.8136 30.5006 75.3042 30.5006 75.8029V84.996H59.9597V74.4902C59.9597 74.4368 59.9569 74.3847 59.9556 74.3313C59.9501 73.9024 59.9186 73.479 59.8651 73.0624L59.8624 73.0638Z" fill="#DFAF89"/>
<path d="M54.1829 50.9C54.1363 50.5985 54.076 50.3012 54.0006 50.0093C53.8595 49.4626 53.669 48.9364 53.4361 48.4335C53.3772 48.3074 53.3155 48.1814 53.2525 48.058C52.8784 47.3373 52.4153 46.6686 51.874 46.0726C51.8644 46.0616 51.8534 46.0506 51.8425 46.0397C51.6506 45.8314 51.4506 45.6313 51.2423 45.4409C51.1313 45.3408 51.019 45.2435 50.9039 45.1476C50.6737 44.9572 50.4339 44.779 50.1872 44.6119C49.9392 44.4447 49.683 44.2885 49.4185 44.1446C49.154 44.0007 48.8827 43.8706 48.6046 43.7527C47.4892 43.2813 46.2642 43.021 44.9775 43.021C43.6908 43.021 42.4658 43.2813 41.3505 43.7527C41.0723 43.8706 40.7996 44.0021 40.5365 44.1446C40.2721 44.2885 40.0158 44.4433 39.7678 44.6119C39.5198 44.779 39.28 44.9585 39.0512 45.1476C38.9361 45.2422 38.8237 45.3408 38.7127 45.4409C38.5031 45.6313 38.303 45.8314 38.1125 46.0397C38.103 46.0506 38.092 46.0616 38.081 46.0726C37.5398 46.6686 37.0766 47.3359 36.7026 48.058C36.6382 48.1814 36.5765 48.3061 36.5189 48.4335C36.286 48.9364 36.0955 49.4626 35.9544 50.0093C35.879 50.3012 35.8187 50.5971 35.7722 50.9C35.7722 50.9068 35.7694 50.9137 35.768 50.9191C35.7215 51.2274 35.6886 51.5412 35.6721 51.8591C35.6639 52.0181 35.6598 52.1784 35.6598 52.3387C35.6598 55.6657 37.4055 58.5843 40.0295 60.2327C40.4845 60.5191 40.9668 60.7672 41.471 60.9713C41.804 61.107 42.1466 61.2234 42.496 61.3194C43.2866 61.5372 44.1184 61.6564 44.9775 61.6564C45.8367 61.6564 46.6684 61.5372 47.459 61.3194C47.8098 61.2221 48.1524 61.107 48.484 60.9713C48.9882 60.7658 49.4692 60.5191 49.9255 60.2327C52.5495 58.5843 54.2952 55.6657 54.2952 52.3387C54.2952 52.1784 54.2911 52.0181 54.2829 51.8591C54.2665 51.5412 54.2349 51.2274 54.187 50.9191C54.187 50.9123 54.1842 50.9054 54.1829 50.9Z" fill="#DFAF89"/>
<path d="M27.5917 73.1707C27.5314 72.9953 27.467 72.8199 27.3943 72.65C27.3258 72.4883 27.2505 72.3294 27.171 72.1732C27.1189 72.069 27.0655 71.9676 27.0093 71.8662C26.96 71.7785 26.9106 71.6895 26.8586 71.6031C26.7914 71.4921 26.7202 71.3825 26.6475 71.2743C26.5599 71.1441 26.4653 71.0167 26.3708 70.8906C26.2721 70.7618 26.1693 70.6357 26.0638 70.5138C25.8487 70.2644 25.6212 70.0273 25.3773 69.8067C25.1855 69.6327 24.9854 69.4669 24.7772 69.3121C24.5428 69.1367 24.3003 68.975 24.0468 68.8256C23.9632 68.7763 23.8769 68.727 23.7919 68.6804C23.2452 68.383 22.6615 68.1487 22.049 67.9843C21.4365 67.8199 20.7938 67.7253 20.1334 67.7089C18.8782 68.283 17.4833 68.6064 16.0144 68.6064C16.0075 68.6064 16.0007 68.6064 15.9938 68.6064C15.1429 68.605 14.3166 68.4954 13.5274 68.2912C12.9628 68.1446 12.4188 67.9487 11.8968 67.7102C11.0363 67.7308 10.2086 67.8856 9.43442 68.1556C9.30562 68.2008 9.17819 68.2487 9.05212 68.2994C8.8 68.4022 8.55472 68.5159 8.3163 68.642C8.07787 68.7681 7.8463 68.9051 7.62295 69.0545C7.3996 69.2038 7.1831 69.3628 6.97619 69.5313C6.66514 69.7848 6.37328 70.0616 6.10334 70.3589C5.6676 70.8385 5.28804 71.3702 4.97699 71.9443C4.86052 72.1594 4.75227 72.3801 4.65498 72.6075C4.59058 72.7582 4.52892 72.9117 4.47411 73.0666C4.36175 73.3776 4.26857 73.6969 4.19595 74.0244C4.06714 74.5971 4 75.1932 4 75.8043V84.9973H28.0315V75.8043C28.0315 75.3014 27.9835 74.8109 27.8958 74.334C27.8232 73.9353 27.7205 73.5475 27.5917 73.1721V73.1707Z" fill="#DFAF89"/>
<path d="M10.5896 63.8063C10.8828 64.116 11.2021 64.3996 11.5433 64.6545C11.7351 64.7984 11.9338 64.9327 12.1394 65.0574C12.2421 65.1204 12.3463 65.1793 12.4518 65.2369C12.5573 65.2944 12.6655 65.3492 12.7738 65.4013C13.0177 65.5191 13.2684 65.6219 13.5261 65.7123C13.844 65.8247 14.1714 65.9179 14.5072 65.9864C14.7511 66.0357 14.9977 66.0741 15.2498 66.1001C15.4937 66.1248 15.7418 66.1371 15.9925 66.1385C15.9994 66.1385 16.0062 66.1385 16.0131 66.1385C17.3025 66.1385 18.5165 65.8124 19.5757 65.2369C21.9052 63.9708 23.4864 61.5029 23.4864 58.6651C23.4864 56.9879 22.9342 55.4409 22.0011 54.194C21.8572 54.0022 21.7051 53.8172 21.5448 53.6404C21.1433 53.1978 20.6884 52.8046 20.191 52.4688C20.0909 52.4017 19.9909 52.3373 19.8881 52.2743C19.536 52.0605 19.166 51.8755 18.7796 51.7207C18.1356 51.4645 17.4463 51.2945 16.7283 51.226C16.4927 51.2041 16.2542 51.1918 16.0131 51.1918C15.3156 51.1918 14.6401 51.2891 13.9988 51.4686C13.5028 51.607 13.0259 51.7947 12.5765 52.0263C12.4271 52.103 12.2805 52.1866 12.1366 52.2729C12.0023 52.3551 11.8694 52.4414 11.7406 52.5305C11.483 52.71 11.2364 52.906 11.0034 53.117C10.9459 53.1691 10.8883 53.2225 10.8308 53.2773C9.41666 54.6366 8.53833 56.5481 8.53833 58.6638C8.53833 60.5013 9.20153 62.1853 10.3018 63.4871C10.3937 63.5953 10.4882 63.7008 10.5855 63.805L10.5896 63.8063Z" fill="#DFAF89"/>
</svg>
