<svg width="593" height="142" viewBox="0 0 593 142" fill="none" xmlns="http://www.w3.org/2000/svg">
<path d="M99.3524 40.1305V14.9234H215.622V40.1305H230.545V0H84.429V40.1305H99.3524Z" fill="#DFAF89"/>
<path d="M215.621 103.928V127.077H99.3519V103.928H84.4285V142H230.545V103.928H215.621Z" fill="#DFAF89"/>
<path d="M0.225342 57.3218V52.3662H27.4801V57.3218H16.3434V88.2563H11.3878V57.3218H0.225342Z" fill="#DFAF89"/>
<path d="M65.5222 88.2564H60.5676V72.6889H41.2453V88.2564H36.2897V52.3921H41.2453V67.7343H60.5666V52.3921H65.5211V88.2564H65.5222Z" fill="#DFAF89"/>
<path d="M100.209 88.2564H78.0339V52.3921H100.209V57.3477H82.9895V67.6839H96.9303V72.6385H82.9895V83.3008H100.209V88.2564Z" fill="#DFAF89"/>
<path d="M159.673 69.9855V84.4521C158.839 85.2876 157.917 85.975 156.907 86.5173C155.898 87.0595 154.826 87.4886 153.692 87.8066C152.557 88.1235 151.377 88.3406 150.15 88.4569C148.925 88.5732 147.676 88.6329 146.409 88.6329C143.872 88.6329 141.494 88.1523 139.276 87.1933C137.056 86.2343 135.117 84.9254 133.457 83.2646C131.796 81.6049 130.486 79.6652 129.527 77.4457C128.567 75.2272 128.089 72.8492 128.089 70.3128C128.089 68.6273 128.305 67.0056 128.739 65.4457C129.172 63.8857 129.79 62.4256 130.591 61.0663C131.392 59.706 132.348 58.4712 133.457 57.3609C134.566 56.2517 135.801 55.2968 137.161 54.4952C138.52 53.6946 139.981 53.0772 141.541 52.643C143.101 52.2098 144.723 51.9927 146.409 51.9927C147.726 51.9927 149.011 52.1306 150.263 52.4053C151.515 52.6811 152.707 53.069 153.842 53.5691C154.977 54.0692 156.048 54.6835 157.058 55.4089C158.067 56.1354 158.988 56.9483 159.824 57.8497L158.898 58.7758C158.497 59.176 158.075 59.4765 157.633 59.6761C157.19 59.8768 156.678 59.9766 156.094 59.9766C155.343 59.9766 154.65 59.7605 154.016 59.3263C152.915 58.5751 151.725 57.9917 150.45 57.5739C149.174 57.1572 147.826 56.9483 146.408 56.9483C144.556 56.9483 142.82 57.2981 141.202 57.9989C139.583 58.6996 138.17 59.6545 136.96 60.8646C135.749 62.0747 134.795 63.4885 134.094 65.1071C133.393 66.7247 133.043 68.4606 133.043 70.3128C133.043 72.1649 133.406 73.8998 134.132 75.5194C134.858 77.137 135.842 78.5519 137.085 79.7609C138.328 80.971 139.772 81.9259 141.415 82.6267C143.058 83.3274 144.807 83.6773 146.659 83.6773C148.194 83.6773 149.645 83.4982 151.013 83.1401C152.382 82.782 153.632 82.2428 154.767 81.5256V74.9442H152.765C152.18 74.9442 151.65 74.8393 151.176 74.6314C150.701 74.4225 150.296 74.1427 149.962 73.7928C149.627 73.4419 149.369 73.0344 149.186 72.5673C149.002 72.1001 148.91 71.6072 148.91 71.0897V69.9886H159.673V69.9855Z" fill="#DFAF89"/>
<path d="M176.667 88.2564H171.712V52.3921H184.575C186.027 52.3921 187.39 52.6679 188.667 53.2173C189.943 53.7678 191.053 54.5149 191.996 55.4574C192.939 56.4 193.686 57.5092 194.236 58.7862C194.787 60.0622 195.062 61.4256 195.062 62.8785C195.062 64.0464 194.883 65.1608 194.524 66.2196C194.165 67.2795 193.661 68.2436 193.01 69.1111C192.358 69.9785 191.588 70.7338 190.694 71.3759C189.801 72.018 188.83 72.5067 187.778 72.8401L199.191 88.2564H195.787C194.82 88.2564 193.965 88.0681 193.222 87.6936C192.479 87.318 191.865 86.7551 191.382 86.0029L181.996 73.3392H176.665V88.2564H176.667ZM176.667 57.3467V68.3836H184.576C185.344 68.3836 186.061 68.2426 186.729 67.9586C187.395 67.6756 187.98 67.2836 188.481 66.7815C188.981 66.2814 189.378 65.6969 189.67 65.0301C189.961 64.3633 190.108 63.6451 190.108 62.8775C190.108 62.1109 189.962 61.3937 189.67 60.7248C189.377 60.058 188.981 59.4736 188.481 58.9725C187.981 58.4724 187.397 58.0762 186.729 57.784C186.062 57.4928 185.344 57.3467 184.576 57.3467H176.667Z" fill="#DFAF89"/>
<path d="M217.661 52.3921H222.492L238.134 88.2564H235.281C234.497 88.2564 233.788 88.0527 233.154 87.6431C232.519 87.2346 232.044 86.6718 231.728 85.9535L229.224 80.2468H210.904L208.426 85.9535C208.126 86.6543 207.655 87.213 207.012 87.6298C206.369 88.0475 205.656 88.2554 204.872 88.2554H202.019L217.661 52.3921ZM219.613 60.2999L213.081 75.2922H227.072L220.54 60.2999C220.273 59.7164 220.115 59.0074 220.064 58.1729C220.03 58.5907 219.977 58.9735 219.902 59.3244C219.826 59.6742 219.73 60.0004 219.613 60.2999Z" fill="#DFAF89"/>
<path d="M275.725 88.2564H271.696L251.198 60.2505C251.065 60.0673 250.952 59.8625 250.861 59.6372C250.769 59.4118 250.689 59.1834 250.623 58.9498C250.556 58.6988 250.498 58.4333 250.448 58.1493V88.2574H245.493V52.3921H249.022C249.823 52.3921 250.523 52.5084 251.124 52.7419C251.724 52.9755 252.201 53.3346 252.55 53.8183L269.944 77.769C270.395 78.4203 270.67 79.2466 270.771 80.2468V52.3921H275.726V88.2564H275.725Z" fill="#DFAF89"/>
<path d="M288.213 88.2564V52.3921H301.678C303.33 52.3921 304.918 52.6051 306.446 53.0301C307.972 53.4561 309.399 54.0601 310.725 54.8442C312.051 55.6293 313.261 56.5677 314.354 57.6595C315.447 58.7533 316.386 59.9623 317.17 61.2887C317.954 62.6151 318.559 64.0413 318.985 65.5672C319.411 67.0943 319.623 68.683 319.623 70.3356C319.623 71.9881 319.41 73.5759 318.985 75.1039C318.559 76.6299 317.955 78.0571 317.17 79.3835C316.384 80.7098 315.447 81.9199 314.354 83.0117C313.261 84.1055 312.051 85.0398 310.725 85.8157C309.399 86.5915 307.972 87.1914 306.446 87.6174C304.918 88.0424 303.33 88.2554 301.678 88.2554H288.213V88.2564ZM301.678 83.3008C303.464 83.3008 305.145 82.9623 306.721 82.2873C308.298 81.6112 309.674 80.6851 310.851 79.509C312.027 78.3329 312.957 76.9571 313.641 75.3797C314.326 73.8033 314.667 72.1219 314.667 70.3366C314.667 68.5523 314.324 66.871 313.641 65.2946C312.957 63.7171 312.027 62.3414 310.851 61.1642C309.674 59.9881 308.298 59.0579 306.721 58.3736C305.145 57.6893 303.464 57.3477 301.678 57.3477H293.168V83.3018H301.678V83.3008Z" fill="#DFAF89"/>
<path d="M359.516 52.3921H364.346L379.989 88.2564H377.136C376.352 88.2564 375.643 88.0527 375.009 87.6431C374.374 87.2346 373.898 86.6718 373.583 85.9535L371.079 80.2468H352.759L350.281 85.9535C349.981 86.6543 349.509 87.213 348.867 87.6298C348.224 88.0475 347.511 88.2554 346.727 88.2554H343.874L359.516 52.3921ZM361.468 60.2999L354.936 75.2922H368.926L362.394 60.2999C362.128 59.7164 361.969 59.0074 361.919 58.1729C361.885 58.5907 361.832 58.9735 361.756 59.3244C361.681 59.6742 361.586 60.0004 361.468 60.2999Z" fill="#DFAF89"/>
<path d="M390.45 74.2396C390.45 75.5423 390.696 76.7678 391.188 77.9192C391.679 79.0696 392.355 80.076 393.215 80.9352C394.074 81.7944 395.079 82.4704 396.231 82.9623C397.382 83.4552 398.609 83.7011 399.909 83.7011C401.21 83.7011 402.437 83.4552 403.588 82.9623C404.739 82.4704 405.745 81.7944 406.604 80.9352C407.463 80.076 408.139 79.0696 408.631 77.9192C409.123 76.7678 409.369 75.5412 409.369 74.2396V52.3921H414.324V74.2406C414.324 75.5762 414.154 76.8563 413.812 78.0828C413.469 79.3083 412.987 80.4567 412.361 81.5238C411.735 82.5918 410.981 83.5632 410.098 84.4399C409.214 85.3166 408.239 86.0667 407.172 86.6913C406.105 87.317 404.96 87.8016 403.734 88.1432C402.51 88.4849 401.229 88.6567 399.896 88.6567C398.579 88.6567 397.307 88.4849 396.082 88.1432C394.857 87.8016 393.711 87.317 392.645 86.6913C391.578 86.0667 390.602 85.3156 389.719 84.4399C388.835 83.5632 388.081 82.5918 387.456 81.5238C386.832 80.4567 386.348 79.3053 386.006 78.0705C385.664 76.8367 385.493 75.5597 385.493 74.2406V52.3921H390.449V74.2396H390.45Z" fill="#DFAF89"/>
<path d="M428.968 70.3113C428.968 72.1634 429.317 73.8983 430.018 75.5179C430.719 77.1355 431.674 78.5504 432.884 79.7594C434.093 80.9695 435.507 81.9244 437.126 82.6251C438.745 83.3259 440.48 83.6757 442.332 83.6757C443.767 83.6757 445.118 83.4679 446.386 83.0501C447.654 82.6344 448.838 82.0489 449.94 81.2988C450.558 80.882 451.249 80.6732 452.018 80.6732C452.619 80.6732 453.139 80.774 453.583 80.9736C454.024 81.1743 454.438 81.4665 454.822 81.8503L455.748 82.7764C454.913 83.6768 453.991 84.4907 452.982 85.2161C451.973 85.9416 450.9 86.5548 449.766 87.0549C448.631 87.556 447.439 87.944 446.188 88.2197C444.936 88.4955 443.651 88.6324 442.333 88.6324C439.797 88.6324 437.42 88.1518 435.2 87.1928C432.981 86.2338 431.041 84.9249 429.381 83.2641C427.72 81.6044 426.411 79.6647 425.451 77.4452C424.491 75.2267 424.013 72.8487 424.013 70.3123C424.013 68.6268 424.229 67.0051 424.663 65.4452C425.096 63.8852 425.714 62.4251 426.515 61.0658C427.316 59.7055 428.272 58.4707 429.381 57.3604C430.49 56.2512 431.725 55.2963 433.086 54.4947C434.445 53.6941 435.905 53.0767 437.465 52.6425C439.025 52.2093 440.648 51.9922 442.333 51.9922C443.651 51.9922 444.935 52.1301 446.188 52.4048C447.44 52.6796 448.631 53.0685 449.766 53.5686C450.901 54.0687 451.973 54.683 452.982 55.4084C453.991 56.1349 454.912 56.9478 455.748 57.8492L454.822 58.7753C454.438 59.1591 454.021 59.4554 453.571 59.6633C453.12 59.8722 452.602 59.9761 452.019 59.9761C451.269 59.9761 450.576 59.76 449.941 59.3258C448.84 58.5746 447.651 57.9912 446.375 57.5734C445.098 57.1567 443.751 56.9478 442.333 56.9478C440.481 56.9478 438.746 57.2976 437.127 57.9984C435.509 58.6991 434.095 59.654 432.885 60.8641C431.675 62.0742 430.72 63.488 430.019 65.1066C429.317 66.7242 428.968 68.4591 428.968 70.3113Z" fill="#DFAF89"/>
<path d="M462.304 57.3218V52.3662H489.558V57.3218H478.422V88.2563H473.466V57.3218H462.304Z" fill="#DFAF89"/>
<path d="M504.226 88.2564H499.27V52.3921H504.226V88.2564Z" fill="#DFAF89"/>
<path d="M515.51 70.3108C515.51 68.6253 515.728 67.0036 516.162 65.4437C516.596 63.8838 517.212 62.4236 518.014 61.0643C518.815 59.704 519.769 58.4692 520.88 57.3589C521.989 56.2497 523.223 55.2948 524.584 54.4932C525.943 53.6927 527.404 53.0753 528.964 52.641C530.524 52.2078 532.146 51.9907 533.832 51.9907C535.517 51.9907 537.139 52.2078 538.699 52.641C540.259 53.0753 541.719 53.6916 543.079 54.4932C544.438 55.2938 545.673 56.2497 546.784 57.3589C547.893 58.4692 548.849 59.703 549.649 61.0643C550.45 62.4236 551.067 63.8838 551.501 65.4437C551.935 67.0047 552.152 68.6264 552.152 70.3108C552.152 71.9953 551.935 73.619 551.501 75.1779C551.067 76.7389 550.451 78.199 549.649 79.5583C548.849 80.9186 547.893 82.1524 546.784 83.2627C545.673 84.373 544.439 85.3279 543.079 86.1284C541.719 86.929 540.259 87.5464 538.699 87.9806C537.138 88.4148 535.516 88.6319 533.832 88.6319C531.295 88.6319 528.918 88.1514 526.698 87.1924C524.479 86.2334 522.54 84.9245 520.88 83.2637C519.219 81.604 517.909 79.6643 516.95 77.4448C515.99 75.2242 515.51 72.8473 515.51 70.3108ZM520.467 70.3108C520.467 72.163 520.818 73.8979 521.518 75.5175C522.218 77.1351 523.173 78.5499 524.383 79.759C525.593 80.9691 527.007 81.924 528.625 82.6247C530.244 83.3254 531.979 83.6753 533.832 83.6753C535.684 83.6753 537.419 83.3244 539.037 82.6247C540.656 81.924 542.07 80.9691 543.28 79.759C544.49 78.5499 545.445 77.1351 546.146 75.5175C546.846 73.8989 547.196 72.163 547.196 70.3108C547.196 68.4586 546.845 66.7238 546.146 65.1052C545.444 63.4866 544.49 62.0727 543.28 60.8627C542.07 59.6536 540.656 58.6977 539.037 57.9969C537.42 57.2962 535.684 56.9463 533.832 56.9463C531.979 56.9463 530.245 57.2962 528.625 57.9969C527.007 58.6977 525.593 59.6526 524.383 60.8627C523.173 62.0727 522.218 63.4866 521.518 65.1052C520.818 66.7238 520.467 68.4586 520.467 70.3108Z" fill="#DFAF89"/>
<path d="M592.846 88.2564H588.816L568.319 60.2505C568.185 60.0673 568.073 59.8625 567.981 59.6372C567.889 59.4118 567.809 59.1834 567.744 58.9498C567.678 58.6988 567.619 58.4333 567.569 58.1493V88.2574H562.614V52.3921H566.142C566.943 52.3921 567.645 52.5084 568.245 52.7419C568.846 52.9755 569.321 53.3346 569.672 53.8183L587.066 77.769C587.517 78.4203 587.791 79.2466 587.892 80.2468V52.3921H592.847V88.2564H592.846Z" fill="#DFAF89"/>
</svg>
