<svg width="18" height="18" viewBox="0 0 18 18" fill="none" xmlns="http://www.w3.org/2000/svg">
<path d="M7.74703 10.7209C7.84451 11.2563 8.31514 11.6428 8.85862 11.6428H11.2029C11.4867 11.6428 11.4448 11.6711 13.0851 13.2718C13.3491 13.5293 13.2872 13.47 12.6041 17.1263C12.5853 17.2271 12.5161 17.311 12.4214 17.35C11.683 17.6537 10.9036 17.8577 10.0999 17.9551C9.9031 17.9789 10.0791 18.0872 7.06738 15.1696C6.85477 14.9598 6.90861 14.8831 6.95806 13.2485C6.97253 12.7702 6.68227 12.3342 6.23571 12.1637C3.02849 10.9389 3.05998 11.022 2.94979 10.7121C1.67418 7.12364 2.00073 7.26912 0.561055 6.91172C0.395792 6.87069 0.298201 6.70051 0.344691 6.53649C0.610731 5.59847 1.02861 4.71105 1.58555 3.90401C1.742 3.67733 1.64569 3.72828 5.19715 4.47446C5.85895 4.61753 5.84362 6.20559 7.04283 6.20559C7.74913 6.20559 7.96377 5.94303 8.28211 5.3692C8.54271 4.89951 9.27436 5.08155 9.27436 5.62362V8.57802C9.2744 9.32927 7.50911 9.41415 7.74703 10.7209ZM12.843 3.83306L13.2708 5.4037C13.3261 5.60665 13.4963 5.75629 13.7044 5.7849C15.4394 6.02333 15.1675 5.84609 16.1412 7.90463C16.6507 8.98129 15.1558 9.79794 15.6026 10.4592L16.8725 12.3162C17.0088 12.5156 17.3132 12.4805 17.4 12.255C18.7933 8.63606 17.7397 4.35256 14.4518 1.84146C14.3188 1.73983 14.1285 1.76566 14.0283 1.89987C12.8379 3.49484 12.7578 3.52018 12.843 3.83306ZM15.5864 8.63557C15.7498 8.33351 15.6326 8.23248 14.9563 6.80281C14.6313 6.11583 13.046 6.86149 12.6921 5.56175C12.0429 3.17829 11.8698 3.76736 13.5042 1.59774C13.6139 1.45207 13.5692 1.24353 13.4105 1.15395C9.92462 -0.813657 5.38097 -0.269262 2.4642 2.81961C2.30336 2.98994 2.39214 3.27135 2.62126 3.31948L5.32211 3.88697C6.36824 4.11312 6.30469 5.60492 7.0429 5.60492C7.50708 5.60492 7.54593 5.45941 7.75779 5.0775C8.31833 4.06724 9.8743 4.46294 9.8743 5.62362C9.8743 9.52058 10.1755 8.95381 8.55224 10.0886C8.13484 10.3804 8.34015 11.0421 8.85172 11.0421C11.3366 11.0421 11.5637 10.9484 11.9867 11.3612L13.5038 12.8415C13.7751 13.1063 13.8943 13.4868 13.8228 13.8593L13.3655 16.3145C13.3175 16.5723 13.5999 16.7645 13.8208 16.6236C15.0153 15.8617 16.0435 14.8075 16.7787 13.5483C16.8375 13.4475 16.8331 13.3215 16.7671 13.2254C14.5111 9.94278 14.5641 10.5254 15.5864 8.63557ZM6.6483 15.5994C6.20763 15.1645 6.31035 14.8211 6.35853 13.2303C6.36528 13.0075 6.23001 12.8044 6.022 12.725L3.04255 11.5871C2.73489 11.4696 2.49513 11.2241 2.38472 10.9135C1.26743 7.77038 1.33743 7.73498 0.976012 7.64307L0.461515 7.50867C0.287366 7.46317 0.113218 7.5806 0.0883609 7.75908C-0.638938 12.9747 3.21257 17.6416 8.36275 17.9992C8.64252 18.0186 8.79492 17.6789 8.59337 17.4836L6.6483 15.5994Z" fill="#DFAF89"/>
</svg>
