<svg width="97" height="97" viewBox="0 0 97 97" fill="none" xmlns="http://www.w3.org/2000/svg">
<mask id="path-1-inside-1_570_3344" fill="white">
<path d="M0 0.0644531H96.871V96.9354H0V0.0644531Z"/>
</mask>
<path d="M0 0.0644531H96.871V96.9354H0V0.0644531Z" fill="white"/>
<path d="M0 0.0644531V-0.935547H-1V0.0644531H0ZM96.871 0.0644531H97.871V-0.935547H96.871V0.0644531ZM96.871 96.9354V97.9354H97.871V96.9354H96.871ZM0 96.9354H-1V97.9354H0V96.9354ZM0 1.06445H96.871V-0.935547H0V1.06445ZM95.871 0.0644531V96.9354H97.871V0.0644531H95.871ZM96.871 95.9354H0V97.9354H96.871V95.9354ZM1 96.9354V0.0644531H-1V96.9354H1Z" fill="#7B7B7B" mask="url(#path-1-inside-1_570_3344)"/>
<mask id="path-3-inside-2_570_3344" fill="white">
<path d="M48.0631 22.3435V27.7576H42.649V22.3435H48.0631ZM42.649 54.1511V61.8662H48.0631V54.1511H42.649ZM58.8912 83.5224V78.1084H53.4771V72.6943H48.0631V83.5224H58.8912ZM69.7193 43.323H53.4771V48.7371H69.7193V43.323ZM69.7193 54.1511H77.299V48.7371H69.7193V54.1511ZM69.7193 61.8662V67.2802H82.7131V54.1511H77.299V61.8662H69.7193ZM53.4771 14.2224H48.0631V22.3435H53.4771V14.2224ZM48.0631 38.5857H53.4771V27.7576H48.0631V33.1716H42.649V48.7371H48.0631V38.5857ZM13.4131 43.323V54.1511H18.8271V48.7371H26.9482V43.323H13.4131ZM53.4771 54.1511V48.7371H48.0631V54.1511H53.4771ZM64.3053 59.5652H69.7193V54.1511H64.3053V59.5652ZM77.299 48.7371H82.7131V43.323H77.299V48.7371ZM58.8912 54.1511H53.4771V61.8662H48.0631V67.2802H58.8912V54.1511ZM42.649 72.6943H48.0631V67.2802H42.649V72.6943ZM58.8912 67.2802V72.6943H69.7193V67.2802H58.8912ZM75.1334 78.1084V72.6943H69.7193V78.1084H75.1334ZM82.7131 83.5224V78.1084H75.1334V83.5224H82.7131ZM64.3053 83.5224H69.7193V78.1084H64.3053V83.5224ZM37.7764 48.7371V43.323H32.3623V48.7371H26.9482V54.1511H42.649V48.7371H37.7764ZM37.7764 38.5857H13.4131V14.2224H37.7764V38.5857ZM32.3623 19.6365H18.8271V33.1716H32.3623V19.6365ZM28.3018 23.697H22.8877V29.1111H28.3018V23.697ZM82.7131 14.2224V38.5857H58.3498V14.2224H82.7131ZM77.299 19.6365H63.7639V33.1716H77.299V19.6365ZM73.2385 23.697H67.8244V29.1111H73.2385V23.697ZM13.4131 59.1591H37.7764V83.5224H13.4131V59.1591ZM18.8271 78.1084H32.3623V64.5732H18.8271V78.1084ZM22.8877 74.0478H28.3018V68.6337H22.8877V74.0478Z"/>
</mask>
<path d="M48.0631 22.3435V27.7576H42.649V22.3435H48.0631ZM42.649 54.1511V61.8662H48.0631V54.1511H42.649ZM58.8912 83.5224V78.1084H53.4771V72.6943H48.0631V83.5224H58.8912ZM69.7193 43.323H53.4771V48.7371H69.7193V43.323ZM69.7193 54.1511H77.299V48.7371H69.7193V54.1511ZM69.7193 61.8662V67.2802H82.7131V54.1511H77.299V61.8662H69.7193ZM53.4771 14.2224H48.0631V22.3435H53.4771V14.2224ZM48.0631 38.5857H53.4771V27.7576H48.0631V33.1716H42.649V48.7371H48.0631V38.5857ZM13.4131 43.323V54.1511H18.8271V48.7371H26.9482V43.323H13.4131ZM53.4771 54.1511V48.7371H48.0631V54.1511H53.4771ZM64.3053 59.5652H69.7193V54.1511H64.3053V59.5652ZM77.299 48.7371H82.7131V43.323H77.299V48.7371ZM58.8912 54.1511H53.4771V61.8662H48.0631V67.2802H58.8912V54.1511ZM42.649 72.6943H48.0631V67.2802H42.649V72.6943ZM58.8912 67.2802V72.6943H69.7193V67.2802H58.8912ZM75.1334 78.1084V72.6943H69.7193V78.1084H75.1334ZM82.7131 83.5224V78.1084H75.1334V83.5224H82.7131ZM64.3053 83.5224H69.7193V78.1084H64.3053V83.5224ZM37.7764 48.7371V43.323H32.3623V48.7371H26.9482V54.1511H42.649V48.7371H37.7764ZM37.7764 38.5857H13.4131V14.2224H37.7764V38.5857ZM32.3623 19.6365H18.8271V33.1716H32.3623V19.6365ZM28.3018 23.697H22.8877V29.1111H28.3018V23.697ZM82.7131 14.2224V38.5857H58.3498V14.2224H82.7131ZM77.299 19.6365H63.7639V33.1716H77.299V19.6365ZM73.2385 23.697H67.8244V29.1111H73.2385V23.697ZM13.4131 59.1591H37.7764V83.5224H13.4131V59.1591ZM18.8271 78.1084H32.3623V64.5732H18.8271V78.1084ZM22.8877 74.0478H28.3018V68.6337H22.8877V74.0478Z" fill="black" stroke="#7B7B7B" stroke-width="2" mask="url(#path-3-inside-2_570_3344)"/>
</svg>
