<svg width="54" height="67" viewBox="0 0 54 67" fill="none" xmlns="http://www.w3.org/2000/svg">
<path d="M19.5322 49.2741L18.6004 47.8405C17.9276 46.8075 16.7385 46.2341 15.5125 46.3536L13.8105 46.5171C12.0332 46.6881 10.4414 45.4198 10.2135 43.6498L10.0077 42.0508L1.34698 58.455C0.944458 59.2178 1.67231 60.0577 2.46449 59.7434L9.51509 56.9515C10.0316 56.7475 10.5977 57.0452 10.719 57.5875L12.3916 64.9836C12.579 65.8144 13.6837 65.9412 14.0862 65.1784L21.7176 50.7188C20.8501 50.5626 20.0487 50.0663 19.5304 49.2723L19.5322 49.2741Z" stroke="#D0D6DC" stroke-width="2" stroke-linejoin="round"/>
<path d="M52.8844 58.4547L44.3487 42.2803L44.1722 43.6478C43.9443 45.4178 42.3526 46.6878 40.5752 46.515L38.8732 46.3515C37.6473 46.2338 36.4563 46.8054 35.7854 47.8384L34.8535 49.2721C34.3095 50.1083 33.4474 50.6193 32.5284 50.7443L40.147 65.1782C40.5495 65.9409 41.6541 65.8141 41.8416 64.9833L43.5142 57.5872C43.6374 57.045 44.2016 56.7472 44.7181 56.9512L51.7687 59.7432C52.5609 60.0575 53.2869 59.2157 52.8862 58.4547H52.8844Z" stroke="#D0D6DC" stroke-width="2" stroke-linejoin="round"/>
<path d="M51.5431 23.7458L50.3539 22.518C49.4974 21.634 49.2033 20.3455 49.5911 19.1765L50.1297 17.5536C50.6921 15.8589 49.808 14.0246 48.1336 13.4089L46.529 12.8189C45.3729 12.3943 44.5495 11.3613 44.3914 10.1391L44.1727 8.44259C43.9448 6.67258 42.353 5.40252 40.5757 5.57529L38.8737 5.73888C37.6477 5.85651 36.4567 5.28489 35.7858 4.25193L34.854 2.81828C33.8798 1.32215 31.8948 0.869995 30.3692 1.79451L28.908 2.68043C27.8548 3.32006 26.5333 3.32006 25.4801 2.68043L24.0189 1.79451C22.4934 0.869995 20.5083 1.32215 19.5342 2.81828L18.6023 4.25193C17.9296 5.28489 16.7404 5.85835 15.5145 5.73888L13.8125 5.57529C12.0351 5.40436 10.4434 6.67258 10.2155 8.44259L9.99676 10.1391C9.8387 11.3613 9.01527 12.3943 7.85916 12.8189L6.25458 13.4089C4.58016 14.0246 3.69607 15.8589 4.2585 17.5536L4.79704 19.1765C5.18486 20.3455 4.89078 21.634 4.03427 22.518L2.84508 23.7458C1.60258 25.0269 1.60258 27.0634 2.84508 28.3464L4.03427 29.5742C4.89078 30.4582 5.18486 31.7467 4.79704 32.9157L4.2585 34.5386C3.69607 36.2333 4.58016 38.0676 6.25458 38.6833L7.85916 39.2733C9.01527 39.6979 9.8387 40.7309 9.99676 41.9531L10.0096 42.0487L10.2155 43.6478C10.4434 45.4178 12.0351 46.6878 13.8125 46.5151L15.5145 46.3515C16.7404 46.2339 17.9314 46.8055 18.6023 47.8384L19.5342 49.2721C20.0507 50.0661 20.8539 50.5624 21.7214 50.7186C22.4879 50.8564 23.3039 50.7296 24.0189 50.2958L25.4801 49.4099C26.5333 48.7703 27.8548 48.7703 28.908 49.4099L30.3692 50.2958C31.0419 50.7039 31.8029 50.8436 32.5289 50.7443C33.4497 50.6193 34.3099 50.1084 34.854 49.2721L35.7858 47.8384C36.4586 46.8055 37.6477 46.232 38.8737 46.3515L40.5757 46.5151C42.353 46.686 43.9448 45.4178 44.1727 43.6478L44.3491 42.2803L44.3914 41.9531C44.5495 40.7309 45.3729 39.6979 46.529 39.2733L48.1336 38.6833C49.808 38.0676 50.6921 36.2333 50.1297 34.5386L49.5911 32.9157C49.2033 31.7467 49.4974 30.4582 50.3539 29.5742L51.5431 28.3464C52.7856 27.0653 52.7856 25.0288 51.5431 23.7458V23.7458Z" stroke="#D0D6DC" stroke-width="2" stroke-miterlimit="10"/>
<path d="M27.1924 43.4091C36.7903 43.4091 44.5708 35.6285 44.5708 26.0307C44.5708 16.4329 36.7903 8.65234 27.1924 8.65234C17.5946 8.65234 9.81409 16.4329 9.81409 26.0307C9.81409 35.6285 17.5946 43.4091 27.1924 43.4091Z" stroke="#D0D6DC" stroke-width="2" stroke-miterlimit="10"/>
</svg>
