<svg width="54" height="67" viewBox="0 0 54 67" fill="none" xmlns="http://www.w3.org/2000/svg">
<path d="M19.1075 49.4285L18.1665 47.9808C17.4872 46.9377 16.2864 46.3586 15.0484 46.4792L13.3297 46.6444C11.5349 46.817 9.9276 45.5364 9.69746 43.749L9.48958 42.1343L0.743977 58.6993C0.337507 59.4696 1.07249 60.3178 1.87244 60.0004L8.99217 57.1811C9.51371 56.9751 10.0854 57.2758 10.2079 57.8233L11.8969 65.2919C12.0862 66.1309 13.2016 66.2589 13.6081 65.4887L21.3143 50.8873C20.4383 50.7295 19.6291 50.2284 19.1057 49.4266L19.1075 49.4285Z" stroke="#D0D6DC" stroke-linejoin="round"/>
<path d="M52.7872 58.6997L44.1678 42.3667L43.9896 43.7476C43.7595 45.5349 42.1522 46.8175 40.3574 46.643L38.6387 46.4778C37.4007 46.359 36.198 46.9362 35.5206 47.9793L34.5796 49.427C34.0302 50.2715 33.1597 50.7875 32.2317 50.9137L39.9249 65.4891C40.3314 66.2593 41.4469 66.1313 41.6362 65.2924L43.3252 57.8237C43.4495 57.2762 44.0193 56.9755 44.5409 57.1815L51.6606 60.0008C52.4605 60.3182 53.1937 59.4681 52.7891 58.6997H52.7872Z" stroke="#D0D6DC" stroke-linejoin="round"/>
<path d="M51.4321 23.6503L50.2313 22.4105C49.3664 21.5177 49.0694 20.2167 49.461 19.0362L50.0049 17.3974C50.5728 15.6861 49.6801 13.8338 47.9892 13.212L46.3689 12.6162C45.2015 12.1875 44.37 11.1444 44.2103 9.91015L43.9895 8.19703C43.7593 6.40968 42.152 5.12716 40.3572 5.30163L38.6385 5.46682C37.4006 5.5856 36.1979 5.00838 35.5204 3.96529L34.5794 2.51759C33.5957 1.00678 31.5912 0.550198 30.0507 1.48378L28.5752 2.37839C27.5117 3.02428 26.1772 3.02428 25.1137 2.37839L23.6381 1.48378C22.0976 0.550198 20.0931 1.00678 19.1094 2.51759L18.1684 3.96529C17.4891 5.00838 16.2883 5.58746 15.0503 5.46682L13.3316 5.30163C11.5368 5.12902 9.9295 6.40968 9.69935 8.19703L9.47849 9.91015C9.31887 11.1444 8.48737 12.1875 7.31993 12.6162L5.69961 13.212C4.00877 13.8338 3.11602 15.6861 3.68397 17.3974L4.22778 19.0362C4.6194 20.2167 4.32244 21.5177 3.45753 22.4105L2.25668 23.6503C1.00201 24.944 1.00201 27.0005 2.25668 28.296L3.45753 29.5358C4.32244 30.4285 4.6194 31.7296 4.22778 32.9101L3.68397 34.5489C3.11602 36.2602 4.00877 38.1125 5.69961 38.7343L7.31993 39.3301C8.48737 39.7588 9.31887 40.8019 9.47849 42.0361L9.49148 42.1327L9.69935 43.7474C9.9295 45.5348 11.5368 46.8173 13.3316 46.6428L15.0503 46.4776C16.2883 46.3588 17.491 46.9361 18.1684 47.9791L19.1094 49.4269C19.631 50.2287 20.442 50.7298 21.3181 50.8875C22.0921 51.0267 22.9161 50.8987 23.6381 50.4607L25.1137 49.5661C26.1772 48.9202 27.5117 48.9202 28.5752 49.5661L30.0507 50.4607C30.73 50.8727 31.4984 51.0138 32.2315 50.9135C33.1614 50.7873 34.03 50.2713 34.5794 49.4269L35.5204 47.9791C36.1997 46.9361 37.4006 46.357 38.6385 46.4776L40.3572 46.6428C42.152 46.8154 43.7593 45.5348 43.9895 43.7474L44.1677 42.3665L44.2103 42.0361C44.37 40.8019 45.2015 39.7588 46.3689 39.3301L47.9892 38.7343C49.6801 38.1125 50.5728 36.2602 50.0049 34.5489L49.461 32.9101C49.0694 31.7296 49.3664 30.4285 50.2313 29.5358L51.4321 28.296C52.6868 27.0023 52.6868 24.9458 51.4321 23.6503V23.6503Z" stroke="#D0D6DC" stroke-miterlimit="10"/>
<path d="M27.0919 45.5699C37.861 45.5699 46.5912 36.8398 46.5912 26.0706C46.5912 15.3014 37.861 6.57129 27.0919 6.57129C16.3227 6.57129 7.59253 15.3014 7.59253 26.0706C7.59253 36.8398 16.3227 45.5699 27.0919 45.5699Z" stroke="#D0D6DC" stroke-miterlimit="10"/>
</svg>
