<svg width="72" height="72" viewBox="0 0 72 72" fill="none" xmlns="http://www.w3.org/2000/svg">
<path d="M31.091 17.0312C31.1941 17.2657 31.3118 17.4918 31.4433 17.7084C31.4916 17.7872 31.541 17.8651 31.5926 17.9408C31.7987 18.2457 32.0331 18.5296 32.2929 18.7893C32.358 18.8545 32.4243 18.9176 32.4916 18.9796C32.6272 19.1027 32.7692 19.2204 32.9164 19.3298C33.1372 19.4949 33.3706 19.6442 33.6146 19.7767C34.4274 20.2183 35.3579 20.4685 36.3484 20.4685C37.3389 20.4685 38.2695 20.2183 39.0823 19.7767C39.3262 19.6442 39.5597 19.4949 39.7805 19.3298C39.9277 19.2194 40.0696 19.1027 40.2053 18.9796C40.5449 18.6715 40.8467 18.3225 41.1043 17.9408C41.1558 17.864 41.2052 17.7872 41.2536 17.7084C41.385 17.4918 41.5028 17.2657 41.6058 17.0312C41.9139 16.3278 42.0843 15.5518 42.0843 14.7348C42.0843 13.9178 41.9139 13.1418 41.6058 12.4384C41.5028 12.2039 41.385 11.9778 41.2536 11.7612C41.2052 11.6823 41.1558 11.6045 41.1043 11.5288C40.8467 11.1471 40.5438 10.7991 40.2053 10.49C40.0696 10.3669 39.9277 10.2492 39.7805 10.1398C38.8236 9.42375 37.6354 9 36.3495 9C35.0635 9 33.8753 9.42375 32.9185 10.1398C32.7713 10.2502 32.6293 10.3669 32.4937 10.49C32.4253 10.552 32.3591 10.6151 32.295 10.6803C32.0352 10.94 31.8008 11.2239 31.5947 11.5288C31.5431 11.6056 31.4937 11.6823 31.4454 11.7612C31.3139 11.9778 31.1962 12.2039 31.0931 12.4384C30.785 13.1418 30.6147 13.9178 30.6147 14.7348C30.6147 15.5518 30.785 16.3278 31.0931 17.0312H31.091Z" fill="#DFAF89"/>
<path d="M30.9574 26.5232C30.9574 28.6304 30.0983 30.5399 28.7125 31.9226C28.9438 31.9941 29.1699 32.0761 29.3917 32.1665C31.052 30.1687 33.5535 28.8953 36.3473 28.8953C39.1411 28.8953 41.6426 30.1697 43.3029 32.1665C43.5247 32.0761 43.7508 31.9941 43.9821 31.9226C42.5963 30.5409 41.7372 28.6304 41.7372 26.5232C41.7372 25.1289 42.1147 23.8219 42.7708 22.6958C42.7067 22.6537 42.6415 22.6106 42.5752 22.5707C42.4901 22.5191 42.4028 22.4687 42.3145 22.4214C42.0505 22.2784 41.775 22.1532 41.489 22.0481C40.8687 21.821 40.201 21.6916 39.5059 21.6748C38.5428 22.1154 37.4724 22.3635 36.3452 22.3635C35.218 22.3635 34.1486 22.1154 33.1844 21.6748C32.4894 21.6916 31.8217 21.821 31.2013 22.0481C30.9153 22.1522 30.6398 22.2773 30.3759 22.4214C30.2876 22.4687 30.2014 22.5191 30.1151 22.5707C30.0489 22.6106 29.9848 22.6537 29.9196 22.6958C30.5757 23.8219 30.9532 25.1289 30.9532 26.5232H30.9574Z" fill="#DFAF89"/>
<path d="M30.6136 44.9241C28.5947 43.2638 27.3046 40.7487 27.3046 37.937C27.3046 37.5627 27.3298 37.1957 27.374 36.833C27.4539 36.1779 27.6042 35.5449 27.8166 34.9403C27.9575 34.5407 28.1258 34.1548 28.3182 33.7837C27.9355 33.6554 27.5369 33.5629 27.1258 33.5103C26.9166 33.484 26.7042 33.4672 26.4886 33.4619C26.0869 33.6459 25.6674 33.7973 25.2331 33.9098C24.6243 34.0665 23.9861 34.1506 23.3289 34.1506C22.2017 34.1506 21.1324 33.9025 20.1681 33.4619C19.5341 33.4777 18.9232 33.587 18.3491 33.7784C18.0052 33.893 17.674 34.0371 17.3596 34.2085C17.0295 34.3883 16.7172 34.5965 16.427 34.8299C16.3302 34.9077 16.2356 34.9887 16.1441 35.0728C16.0705 35.1401 15.999 35.2084 15.9286 35.2789C15.9012 35.3062 15.8749 35.3357 15.8476 35.364C19.226 36.1474 21.7517 39.1799 21.7517 42.7928C21.7517 44.9 20.8926 46.8095 19.5068 48.1922C21.1944 48.7105 22.6486 49.7662 23.6696 51.1594C24.8588 48.128 27.4349 45.7885 30.6125 44.9252L30.6136 44.9241Z" fill="#DFAF89"/>
<path d="M17.7108 27.6785C17.7676 27.9582 17.8454 28.2316 17.9422 28.4945C18.0063 28.6701 18.0788 28.8415 18.1598 29.0087C18.2408 29.1758 18.3291 29.3388 18.4248 29.4965C18.5205 29.6543 18.6235 29.8067 18.7339 29.9539C18.8443 30.1012 18.961 30.2431 19.0841 30.3787C19.1461 30.4471 19.2092 30.5133 19.2744 30.5775C19.5341 30.8372 19.818 31.0717 20.1229 31.2778C20.1997 31.3293 20.2765 31.3787 20.3553 31.4271C20.4342 31.4754 20.5141 31.5207 20.5951 31.5648C21.4078 32.0064 22.3384 32.2567 23.3289 32.2567C23.9966 32.2567 24.637 32.141 25.2331 31.9318C25.5202 31.8308 25.7978 31.7089 26.0628 31.5648C26.1437 31.5207 26.2236 31.4744 26.3025 31.4271C26.3814 31.3787 26.4592 31.3293 26.5349 31.2778C26.742 31.1379 26.9387 30.9833 27.1258 30.8183C27.1805 30.7699 27.2341 30.7205 27.2867 30.67C27.3613 30.5985 27.4339 30.526 27.5044 30.4513C27.6453 30.302 27.7788 30.1443 27.9039 29.9802C27.966 29.8982 28.0259 29.8141 28.0837 29.7289C28.1352 29.6522 28.1847 29.5754 28.233 29.4965C28.2993 29.3882 28.3613 29.2778 28.4202 29.1643C28.8313 28.3736 29.0637 27.4756 29.0637 26.523C29.0637 25.6218 28.8555 24.7691 28.4843 24.0099C28.4223 23.8827 28.355 23.7586 28.2835 23.6366C28.2204 23.5273 28.1542 23.42 28.0837 23.3159C27.8682 22.9963 27.62 22.7008 27.3466 22.4316C27.293 22.3791 27.2404 22.3275 27.1847 22.2771C27.0491 22.154 26.9071 22.0363 26.7599 21.9269C25.8031 21.2109 24.6149 20.7871 23.3289 20.7871C21.5477 20.7871 19.9557 21.5999 18.9032 22.8743C18.7865 23.0163 18.6761 23.1635 18.573 23.3159C18.47 23.4684 18.3743 23.6261 18.286 23.7891C17.9769 24.3579 17.7613 24.9846 17.6604 25.6492C17.6172 25.9341 17.5941 26.2254 17.5941 26.523C17.5941 26.8195 17.6162 27.1118 17.6604 27.3967C17.6751 27.4914 17.6919 27.586 17.7108 27.6796V27.6785Z" fill="#DFAF89"/>
<path d="M53.2247 48.1912C51.8388 46.8095 50.9798 44.899 50.9798 42.7918C50.9798 39.1894 53.4907 36.1643 56.8544 35.3694C56.825 35.3389 56.7966 35.3073 56.7671 35.2779C56.6967 35.2075 56.6252 35.1391 56.5516 35.0718C56.4044 34.9383 56.2508 34.811 56.091 34.6922C55.9112 34.5576 55.7251 34.4336 55.5306 34.3189C55.4664 34.2811 55.4002 34.2432 55.335 34.2075C54.497 33.7522 53.5412 33.4862 52.5265 33.4609C51.5633 33.9015 50.4929 34.1497 49.3657 34.1497C48.7086 34.1497 48.0703 34.0666 47.4615 33.9089C47.0262 33.7964 46.6077 33.6449 46.206 33.4609C45.9905 33.4662 45.7781 33.482 45.5688 33.5093C45.1577 33.5619 44.7581 33.6544 44.3764 33.7827C44.5699 34.1539 44.7371 34.5398 44.878 34.9393C45.0904 35.5439 45.2408 36.1769 45.3207 36.832C45.3648 37.1937 45.3901 37.5617 45.3901 37.9361C45.3901 40.7477 44.0999 43.2629 42.0811 44.9232C45.2702 45.7906 47.8537 48.1439 49.0366 51.1911C50.0597 49.7821 51.5223 48.7127 53.2236 48.1901L53.2247 48.1912Z" fill="#DFAF89"/>
<path d="M56.4727 37.4678C56.1803 37.5855 55.8996 37.7254 55.6336 37.8873C55.5547 37.9357 55.4769 37.9851 55.4012 38.0366C55.0195 38.2942 54.6715 38.5971 54.3623 38.9356C54.2393 39.0713 54.1215 39.2132 54.0122 39.3604C53.2961 40.3173 52.8724 41.5055 52.8724 42.7914C52.8724 44.9691 54.0858 46.8628 55.8733 47.8343C56.6808 48.2728 57.604 48.5231 58.5872 48.5262C58.5935 48.5262 58.6009 48.5262 58.6072 48.5262C59.2633 48.5262 59.8921 48.4148 60.4799 48.2118C60.7785 48.1088 61.0666 47.9826 61.341 47.8343C63.1285 46.8628 64.342 44.9691 64.342 42.7914C64.342 41.5044 63.9182 40.3173 63.2022 39.3604C63.0917 39.2132 62.975 39.0713 62.852 38.9356C62.5439 38.596 62.1948 38.2942 61.8131 38.0366C61.7364 37.9851 61.6596 37.9357 61.5808 37.8873C61.4672 37.819 61.3526 37.7538 61.2338 37.6928C61.115 37.6318 60.9951 37.575 60.8731 37.5225C60.6281 37.4173 60.3737 37.329 60.1118 37.2575C59.6324 37.1271 59.1276 37.0566 58.6072 37.0566C58.4095 37.0566 58.215 37.0672 58.0225 37.0861C57.48 37.1408 56.9595 37.2711 56.4716 37.4667L56.4727 37.4678Z" fill="#DFAF89"/>
<path d="M44.4616 29.4965C44.5099 29.5754 44.5594 29.6532 44.6109 29.7289C44.817 30.0339 45.0515 30.3178 45.3112 30.5775C45.3942 30.6605 45.4815 30.7405 45.5698 30.8183C45.757 30.9833 45.9536 31.1379 46.1608 31.2778C46.2375 31.3293 46.3143 31.3787 46.3932 31.4271C46.472 31.4754 46.5519 31.5207 46.6329 31.5648C46.8968 31.7089 47.1744 31.8308 47.4625 31.9318C48.0587 32.1421 48.6991 32.2567 49.3667 32.2567C50.3562 32.2567 51.2878 32.0064 52.1006 31.5648C52.1816 31.5207 52.2615 31.4744 52.3403 31.4271C52.4192 31.3787 52.497 31.3293 52.5727 31.2778C52.8409 31.0969 53.0911 30.8929 53.3245 30.67C53.3992 30.5985 53.4717 30.526 53.5422 30.4513C53.6831 30.302 53.8166 30.1443 53.9418 29.9802C54.0038 29.8982 54.0637 29.8141 54.1216 29.7289C54.1731 29.6522 54.2225 29.5754 54.2709 29.4965C54.3371 29.3882 54.3992 29.2778 54.458 29.1643C54.8692 28.3736 55.1015 27.4756 55.1015 26.523C55.1015 25.4704 54.8166 24.4852 54.3213 23.6366C54.2583 23.5273 54.192 23.42 54.1216 23.3159C53.8639 22.9342 53.5611 22.5862 53.2225 22.2771C53.0869 22.154 52.9449 22.0363 52.7977 21.9269C51.8409 21.2109 50.6527 20.7871 49.3667 20.7871C48.0808 20.7871 46.8926 21.2109 45.9358 21.9269C45.7886 22.0373 45.6466 22.154 45.511 22.2771C45.4563 22.3275 45.4027 22.3791 45.349 22.4316C45.3364 22.4432 45.3238 22.4548 45.3122 22.4674C45.0525 22.7271 44.818 23.011 44.6119 23.3159C44.5415 23.42 44.4763 23.5273 44.4122 23.6366C44.3407 23.7586 44.2734 23.8827 44.2113 24.0099C43.8401 24.7691 43.632 25.6218 43.632 26.523C43.632 27.4756 43.8643 28.3736 44.2755 29.1643C44.3343 29.2768 44.3964 29.3882 44.4626 29.4965H44.4616Z" fill="#DFAF89"/>
<path d="M67.3397 53.5231C67.2871 53.399 67.2293 53.2771 67.1683 53.1572C67.0484 52.9185 66.9149 52.6872 66.7666 52.4674C66.6994 52.3675 66.6268 52.2697 66.5542 52.173C66.4785 52.0742 66.3997 51.9774 66.3187 51.8838C66.1536 51.6925 65.9791 51.5106 65.7919 51.3413C65.6447 51.2077 65.4912 51.0805 65.3314 50.9617C65.1516 50.8271 64.9654 50.703 64.7709 50.5884C64.7068 50.5506 64.6405 50.5127 64.5753 50.4769C64.1558 50.2488 63.7079 50.069 63.2379 49.9428C62.7679 49.8166 62.2747 49.7441 61.7679 49.7314C61.3568 49.9197 60.9267 50.0732 60.4798 50.1867C59.8805 50.3382 59.2538 50.4202 58.6071 50.4202C58.6008 50.4202 58.5935 50.4202 58.5871 50.4202C57.4673 50.417 56.4053 50.1699 55.4474 49.7325C54.8134 49.7483 54.2025 49.8576 53.6284 50.049C53.2845 50.1636 52.9533 50.3077 52.6389 50.4791C52.5727 50.5148 52.5075 50.5516 52.4433 50.5905C52.2499 50.7051 52.0627 50.8302 51.8829 50.9638C51.6432 51.1425 51.4181 51.3381 51.2068 51.5495C51.0985 51.6578 50.9965 51.7703 50.8966 51.8859C50.8156 51.9795 50.7368 52.0763 50.6611 52.1751C50.5875 52.2708 50.516 52.3686 50.4487 52.4695C50.3929 52.5526 50.3393 52.6367 50.2867 52.7219C50.2468 52.7881 50.2089 52.8554 50.1711 52.9238C50.128 53.0016 50.087 53.0804 50.047 53.1593C49.9871 53.2792 49.9282 53.4011 49.8756 53.5252C49.8083 53.6829 49.7494 53.8459 49.6958 54.0099C49.72 54.276 49.7326 54.5451 49.7358 54.8164C49.7358 54.8574 49.7368 54.8974 49.7368 54.9384V63.0001H67.8286V55.9457C67.8286 55.0877 67.6551 54.2707 67.3407 53.5262L67.3397 53.5231Z" fill="#DFAF89"/>
<path d="M47.7716 53.8399C47.7317 53.5276 47.6749 53.2205 47.6013 52.9209C47.472 52.3888 47.2922 51.8746 47.0682 51.3868C47.023 51.289 46.9767 51.1922 46.9284 51.0966C46.8316 50.9052 46.7275 50.718 46.6171 50.5361C46.4752 50.3027 46.3227 50.0777 46.1597 49.859C45.9053 49.5183 45.6256 49.1986 45.3248 48.9C45.144 48.7213 44.9547 48.5509 44.7581 48.3879C44.4437 48.1282 44.1104 47.8916 43.7613 47.6792C42.6888 47.0273 41.4606 46.6088 40.1463 46.489C39.895 46.4658 39.6405 46.4521 39.3829 46.4521C39.017 46.5825 38.6395 46.6908 38.2536 46.7739C37.6395 46.9064 37.0023 46.9779 36.3494 46.9779C35.6964 46.9779 35.0592 46.9064 34.4451 46.7739C34.0592 46.6908 33.6818 46.5836 33.3158 46.4521C33.0582 46.4521 32.8038 46.4658 32.5525 46.489C31.2381 46.6088 30.0089 47.0284 28.9375 47.6792C28.5873 47.8916 28.2551 48.1293 27.9407 48.3879C27.7314 48.5604 27.5306 48.7433 27.3382 48.9358C27.2667 49.0073 27.1952 49.0809 27.1258 49.1555C26.9176 49.3795 26.722 49.614 26.538 49.859C26.375 50.0766 26.2225 50.3027 26.0806 50.5361C25.9702 50.718 25.8661 50.9052 25.7693 51.0966C25.721 51.1922 25.6737 51.289 25.6295 51.3868C25.4055 51.8746 25.2257 52.3878 25.0964 52.9209C25.0302 53.1932 24.9765 53.4697 24.9376 53.7515C25.0344 54.0975 25.1101 54.4508 25.1605 54.8135C25.2121 55.1826 25.2404 55.559 25.2404 55.9418V62.9962H47.8463V54.9345C47.8463 54.8935 47.8442 54.8535 47.8431 54.8125C47.8389 54.4834 47.8148 54.1585 47.7737 53.8388L47.7716 53.8399Z" fill="#DFAF89"/>
<path d="M43.4134 36.8331C43.3776 36.6018 43.3313 36.3736 43.2735 36.1497C43.1652 35.7301 43.0191 35.3264 42.8403 34.9405C42.7951 34.8437 42.7478 34.747 42.6994 34.6524C42.4123 34.0993 42.0569 33.5862 41.6416 33.1288C41.6343 33.1204 41.6258 33.1119 41.6174 33.1035C41.4702 32.9437 41.3167 32.7902 41.1569 32.644C41.0717 32.5673 40.9855 32.4926 40.8972 32.419C40.7205 32.2729 40.5365 32.1362 40.3472 32.0079C40.1569 31.8796 39.9603 31.7597 39.7574 31.6493C39.5544 31.5389 39.3462 31.439 39.1328 31.3486C38.2769 30.9869 37.3368 30.7871 36.3495 30.7871C35.3621 30.7871 34.4221 30.9869 33.5662 31.3486C33.3528 31.439 33.1435 31.54 32.9416 31.6493C32.7387 31.7597 32.5421 31.8785 32.3518 32.0079C32.1614 32.1362 31.9774 32.2739 31.8018 32.419C31.7135 32.4916 31.6273 32.5673 31.5421 32.644C31.3812 32.7902 31.2277 32.9437 31.0816 33.1035C31.0742 33.1119 31.0658 33.1204 31.0574 33.1288C30.642 33.5862 30.2866 34.0982 29.9996 34.6524C29.9502 34.747 29.9028 34.8427 29.8587 34.9405C29.6799 35.3264 29.5338 35.7301 29.4255 36.1497C29.3676 36.3736 29.3214 36.6008 29.2856 36.8331C29.2856 36.8384 29.2835 36.8437 29.2825 36.8479C29.2467 37.0844 29.2215 37.3252 29.2089 37.5692C29.2026 37.6912 29.1994 37.8142 29.1994 37.9372C29.1994 40.4902 30.539 42.7299 32.5526 43.9948C32.9017 44.2146 33.2718 44.4049 33.6587 44.5615C33.9143 44.6656 34.1771 44.755 34.4453 44.8286C35.052 44.9958 35.6902 45.0873 36.3495 45.0873C37.0088 45.0873 37.647 44.9958 38.2537 44.8286C38.5229 44.754 38.7858 44.6656 39.0402 44.5615C39.4272 44.4038 39.7963 44.2146 40.1464 43.9948C42.16 42.7299 43.4996 40.4902 43.4996 37.9372C43.4996 37.8142 43.4964 37.6912 43.4901 37.5692C43.4775 37.3252 43.4533 37.0844 43.4165 36.8479C43.4165 36.8426 43.4144 36.8373 43.4134 36.8331Z" fill="#DFAF89"/>
<path d="M23.0082 53.9227C22.9619 53.7881 22.9125 53.6535 22.8568 53.5231C22.8042 53.399 22.7464 53.2771 22.6854 53.1572C22.6454 53.0773 22.6044 52.9995 22.5613 52.9216C22.5234 52.8544 22.4856 52.786 22.4456 52.7198C22.3941 52.6346 22.3394 52.5505 22.2837 52.4674C22.2164 52.3675 22.1439 52.2697 22.0713 52.173C21.9956 52.0742 21.9167 51.9774 21.8358 51.8838C21.6707 51.6925 21.4961 51.5106 21.309 51.3413C21.1618 51.2077 21.0083 51.0805 20.8484 50.9617C20.6686 50.8271 20.4825 50.703 20.288 50.5884C20.2239 50.5506 20.1576 50.5127 20.0924 50.4769C19.6729 50.2488 19.2249 50.069 18.7549 49.9428C18.2849 49.8166 17.7918 49.7441 17.285 49.7314C16.3218 50.172 15.2514 50.4202 14.1242 50.4202C14.1189 50.4202 14.1137 50.4202 14.1084 50.4202C13.4555 50.4191 12.8214 50.335 12.2158 50.1783C11.7825 50.0658 11.3651 49.9155 10.9645 49.7325C10.3042 49.7483 9.66906 49.8671 9.07497 50.0742C8.97613 50.1089 8.87834 50.1457 8.78161 50.1846C8.58813 50.2635 8.39992 50.3508 8.21696 50.4475C8.034 50.5442 7.8563 50.6494 7.68491 50.764C7.51352 50.8786 7.34738 51.0006 7.18861 51.1299C6.94992 51.3244 6.72596 51.5368 6.51881 51.765C6.18444 52.133 5.89318 52.541 5.65449 52.9816C5.56512 53.1467 5.48205 53.316 5.40739 53.4905C5.35797 53.6062 5.31066 53.7239 5.2686 53.8427C5.18238 54.0814 5.11088 54.3264 5.05515 54.5777C4.95631 55.0173 4.90479 55.4747 4.90479 55.9436V62.998H23.3457V55.9436C23.3457 55.5577 23.3089 55.1813 23.2416 54.8154C23.1859 54.5094 23.107 54.2118 23.0082 53.9237V53.9227Z" fill="#DFAF89"/>
<path d="M9.96134 46.7366C10.1864 46.9742 10.4314 47.1919 10.6932 47.3875C10.8404 47.4979 10.9928 47.6009 11.1506 47.6966C11.2294 47.745 11.3093 47.7902 11.3903 47.8343C11.4713 47.8785 11.5543 47.9206 11.6374 47.9605C11.8246 48.051 12.017 48.1298 12.2147 48.1992C12.4586 48.2854 12.7099 48.3569 12.9675 48.4095C13.1547 48.4474 13.344 48.4768 13.5374 48.4968C13.7246 48.5157 13.9149 48.5252 14.1073 48.5262C14.1126 48.5262 14.1179 48.5262 14.1231 48.5262C15.1126 48.5262 16.0442 48.276 16.857 47.8343C18.6445 46.8628 19.8579 44.9691 19.8579 42.7914C19.8579 41.5044 19.4342 40.3173 18.7181 39.3604C18.6077 39.2132 18.491 39.0713 18.368 38.9356C18.0599 38.596 17.7108 38.2942 17.3291 38.0366C17.2523 37.9851 17.1756 37.9357 17.0967 37.8873C16.8265 37.7233 16.5426 37.5813 16.2461 37.4625C15.7519 37.2659 15.223 37.1355 14.672 37.0829C14.4911 37.0661 14.3082 37.0566 14.1231 37.0566C13.5879 37.0566 13.0695 37.1313 12.5774 37.269C12.1968 37.3752 11.8309 37.5193 11.486 37.697C11.3714 37.7559 11.2589 37.82 11.1485 37.8863C11.0454 37.9494 10.9434 38.0156 10.8446 38.0839C10.6469 38.2217 10.4576 38.372 10.2789 38.534C10.2347 38.5739 10.1906 38.6149 10.1464 38.657C9.06127 39.7001 8.38727 41.1669 8.38727 42.7904C8.38727 44.2004 8.89619 45.4927 9.74053 46.4916C9.81098 46.5747 9.88353 46.6556 9.95818 46.7356L9.96134 46.7366Z" fill="#DFAF89"/>
</svg>
