<svg width="72" height="72" viewBox="0 0 72 72" fill="none" xmlns="http://www.w3.org/2000/svg">
<path d="M53.7525 39.7984C52.7153 41.3055 51.6627 42.7596 50.6102 44.142C54.1079 42.5272 56.8146 38.8022 56.8146 35.9401C56.8146 35.6684 56.8094 35.4001 56.8009 35.1318C55.8526 36.6663 54.8307 38.2315 53.7525 39.8001V39.7984Z" fill="#DFAF89"/>
<path d="M64.1725 14.0928C63.518 14.8292 62.5355 15.6511 61.1121 16.2509C60.6696 16.4372 60.1894 16.6046 59.6836 16.7806C56.8078 17.7802 53.8346 18.8157 54.6719 23.8923C54.6907 24.0034 54.7163 24.1111 54.7437 24.2187C54.865 24.6715 55.0786 25.085 55.3725 25.449C55.3742 25.4524 55.3759 25.4541 55.3793 25.4575C55.4203 25.5071 55.4631 25.5567 55.5075 25.6045C55.5195 25.6182 55.5314 25.6318 55.5434 25.6438C55.5827 25.6865 55.6237 25.7275 55.6664 25.7668C55.6852 25.7856 55.704 25.8027 55.7228 25.8215C55.7621 25.8574 55.8031 25.8933 55.8441 25.9274C55.868 25.948 55.8937 25.9685 55.9176 25.989C55.9569 26.0197 55.9962 26.0522 56.0372 26.0812C56.0662 26.1034 56.097 26.124 56.1261 26.1462C56.1654 26.1735 56.2047 26.2008 56.2457 26.2265C56.2798 26.2487 56.3157 26.2709 56.3516 26.2931C56.3909 26.317 56.4302 26.341 56.4695 26.3632C56.5088 26.3854 56.5498 26.4076 56.5908 26.4298C56.6301 26.4503 56.6677 26.4708 56.707 26.4896C56.7532 26.5118 56.801 26.534 56.8471 26.5546C56.8847 26.5716 56.9206 26.5887 56.9582 26.6041C57.0146 26.628 57.071 26.6502 57.1291 26.6725C57.1598 26.6844 57.1906 26.6964 57.2213 26.7083C57.3119 26.7408 57.4042 26.7716 57.4982 26.8006C57.6332 26.8416 57.7681 26.8758 57.9031 26.9066C57.9202 26.91 57.9373 26.9117 57.9527 26.9168C58.074 26.9424 58.1953 26.9646 58.3166 26.9834C58.3218 26.9834 58.3286 26.9834 58.3337 26.9852C60.1757 27.25 62.0707 26.6109 63.342 25.244C65.4523 22.9765 65.7325 19.0566 64.1708 14.0928H64.1725Z" fill="#DFAF89"/>
<path d="M56.9565 28.6007C55.311 28.1051 54.0448 27.0884 53.3477 25.7676C53.023 26.1384 52.6966 26.5194 52.3669 26.9107C52.3412 26.9415 52.3156 26.9722 52.29 27.003C52.1464 27.1739 52.0029 27.3464 51.8594 27.5207C51.8337 27.5532 51.8064 27.584 51.7808 27.6164C51.3587 28.1308 50.9332 28.6588 50.506 29.2004C50.4411 29.2824 50.3762 29.3645 50.3113 29.4482C50.2036 29.5866 50.0942 29.7267 49.9866 29.8668C49.9029 29.9762 49.8174 30.0855 49.7337 30.1949C49.6346 30.3231 49.5372 30.4512 49.4381 30.5811C49.3304 30.7229 49.2228 30.8664 49.1151 31.01C49.0382 31.1125 48.9596 31.215 48.8828 31.3192C48.7033 31.5585 48.5256 31.8011 48.3462 32.0455C48.2779 32.1394 48.2095 32.2334 48.1412 32.3274C48.0164 32.4983 47.8917 32.6709 47.767 32.8434C47.6969 32.9425 47.6251 33.0416 47.5551 33.1408C47.4269 33.3219 47.2971 33.503 47.1689 33.6841C47.1074 33.7713 47.0459 33.8567 46.9844 33.9439C46.7964 34.2121 46.6084 34.4821 46.4222 34.7538C46.1864 35.0973 45.954 35.4407 45.7233 35.7825C45.6533 35.8867 45.5832 35.9926 45.5131 36.0969C45.3508 36.3395 45.1902 36.5821 45.0313 36.8231C44.9544 36.9393 44.8792 37.0555 44.804 37.1717C44.6434 37.4177 44.4862 37.6621 44.3307 37.9064C44.2675 38.0055 44.2042 38.1029 44.141 38.202C43.924 38.5438 43.7087 38.8855 43.4985 39.2255C43.2901 39.5639 43.085 39.8988 42.8834 40.2337C42.827 40.326 42.7723 40.4182 42.7177 40.5122C42.5707 40.7583 42.4237 41.0043 42.2802 41.2487C42.2204 41.3495 42.1623 41.4503 42.1025 41.5511C41.9556 41.804 41.812 42.0552 41.6702 42.3047C41.6258 42.3833 41.5796 42.4619 41.5352 42.5405C41.349 42.872 41.1644 43.2018 40.9867 43.5264C40.0845 45.1771 39.3019 46.7474 38.6645 48.1947C36.6875 52.6852 36.855 54.3222 37.0703 54.5426C37.342 54.6588 38.9311 54.2316 42.4203 50.7817C44.0505 49.1687 45.8156 47.1763 47.6132 44.931C47.796 44.702 47.9805 44.4696 48.1651 44.2355C48.1788 44.2185 48.1907 44.2031 48.2044 44.186C48.377 43.9656 48.5513 43.7417 48.7238 43.5162C48.7512 43.4803 48.7785 43.4461 48.8059 43.4102C48.9682 43.2001 49.1288 42.9882 49.2911 42.7746C49.3339 42.7182 49.3766 42.6618 49.4193 42.6037C49.568 42.4072 49.7149 42.2107 49.8636 42.0108C49.9234 41.9288 49.9849 41.8467 50.0447 41.7647C50.1763 41.5853 50.3095 41.4059 50.4411 41.2248C50.5231 41.1137 50.6034 41.0009 50.6838 40.8881C50.7965 40.7309 50.911 40.5737 51.0238 40.4165C51.1332 40.2627 51.2425 40.1073 51.3519 39.9535C51.439 39.8304 51.5262 39.7091 51.6116 39.5861C51.8098 39.3041 52.0063 39.0205 52.2028 38.7351C52.4027 38.4429 52.6027 38.1525 52.7992 37.8603C52.9017 37.7082 53.0008 37.5578 53.1016 37.4075C53.1939 37.269 53.2862 37.1324 53.3767 36.9939C53.5134 36.7872 53.6484 36.5804 53.7834 36.3737C53.8347 36.2951 53.8859 36.2165 53.9372 36.1379C54.0944 35.8952 54.2499 35.6543 54.4037 35.4117C54.4293 35.3706 54.4566 35.3296 54.4823 35.2886C54.6514 35.0238 54.8172 34.7589 54.9812 34.4958C54.9915 34.4804 55.0017 34.4633 55.012 34.4479C55.1846 34.1694 55.3554 33.8926 55.5229 33.6175V33.6141C55.8646 33.0553 56.1944 32.5017 56.5139 31.9549C57.1291 30.8972 57.6981 29.8668 58.2244 28.8672C57.7972 28.816 57.3734 28.7271 56.9548 28.6024L56.9565 28.6007Z" fill="#DFAF89"/>
<path d="M32.2944 12C18.3238 12 7 23.3238 7 37.2944C7 46.8991 11.9041 54.7285 19.7899 59.0123C23.3731 60.9586 28.3523 59.8701 31.5528 57.131C38.9328 50.8138 31.4827 48.0833 36.0519 43.5637C36.8122 42.8118 37.8751 42.7623 39.1242 43.0152C40.7099 40.0745 42.6715 36.886 44.874 33.6855C47.6695 29.6239 50.5863 25.9313 53.269 23.0401C49.0416 16.2308 41.3933 12 32.2944 12ZM17.6847 45.9542C15.6786 45.9542 14.0519 44.3275 14.0519 42.3214C14.0519 40.3154 15.6786 38.6887 17.6847 38.6887C19.6907 38.6887 21.3175 40.3154 21.3175 42.3214C21.3175 44.3275 19.6907 45.9542 17.6847 45.9542ZM18.4058 32.9764C16.3997 32.9764 14.773 31.3497 14.773 29.3436C14.773 27.3376 16.3997 25.7109 18.4058 25.7109C20.4118 25.7109 22.0385 27.3376 22.0385 29.3436C22.0385 31.3497 20.4118 32.9764 18.4058 32.9764ZM28.8889 25.3384C26.8828 25.3384 25.2561 23.7116 25.2561 21.7056C25.2561 19.6995 26.8828 18.0728 28.8889 18.0728C30.8949 18.0728 32.5216 19.6995 32.5216 21.7056C32.5216 23.7116 30.8949 25.3384 28.8889 25.3384ZM41.9231 28.2227C39.917 28.2227 38.2903 26.596 38.2903 24.5899C38.2903 22.5839 39.917 20.9572 41.9231 20.9572C43.9291 20.9572 45.5558 22.5839 45.5558 24.5899C45.5558 26.596 43.9291 28.2227 41.9231 28.2227Z" fill="#DFAF89"/>
</svg>
