<svg width="72" height="72" viewBox="0 0 72 72" fill="none" xmlns="http://www.w3.org/2000/svg">
<path fill-rule="evenodd" clip-rule="evenodd" d="M63 36C63 50.9117 50.9117 63 36 63C21.0883 63 9 50.9117 9 36C9 21.0883 21.0883 9 36 9C50.9117 9 63 21.0883 63 36ZM36 57.1091C47.6582 57.1091 57.1091 47.878 57.1091 36.4909C57.1091 25.1038 47.6582 15.8727 36 15.8727C24.3418 15.8727 14.8909 25.1038 14.8909 36.4909C14.8909 47.878 24.3418 57.1091 36 57.1091ZM36 55.1455C46.6176 55.1455 55.1455 46.7502 55.1455 36.4909C55.1455 26.2316 46.6176 17.8364 36 17.8364C25.3824 17.8364 16.8545 26.2316 16.8545 36.4909C16.8545 46.7502 25.3824 55.1455 36 55.1455ZM37.4513 34.7595C41.5938 35.7095 44.3454 37.1498 44.3454 40.8885C44.3454 44.4126 41.8357 46.9868 37.4513 47.2933V47.8787C37.4513 48.6386 36.8354 49.2545 36.0756 49.2545C35.3157 49.2545 34.6998 48.6386 34.6998 47.8787V47.2013C32.4951 46.9342 30.5564 46.1474 28.8986 44.9476C28.1611 44.4139 28.0929 43.373 28.6609 42.6616C29.2929 41.8697 30.4573 41.7975 31.2977 42.3634C32.3351 43.062 33.4631 43.5633 34.6998 43.8304V37.8546C30.9806 36.874 28.4709 35.5256 28.4709 31.9095C28.4709 28.5998 30.9806 26.0563 34.6998 25.5966V25.1031C34.6998 24.3432 35.3157 23.7273 36.0756 23.7273C36.8354 23.7273 37.4513 24.3432 37.4513 25.1031V25.6273C39.4309 25.8397 41.0876 26.5066 42.5457 27.5019C43.2892 28.0095 43.3943 29.0351 42.8639 29.7624C42.2627 30.5867 41.0907 30.7018 40.2251 30.1618C39.3347 29.6064 38.405 29.2108 37.4513 28.9982V34.7595ZM34.6998 28.9369C33.2181 29.3047 32.2808 30.3772 32.2808 31.5724C32.2808 32.7982 33.067 33.4417 34.6998 34.024V28.9369ZM37.4513 38.5594V44.0142C39.5075 43.7691 40.5658 42.6046 40.5658 41.2562C40.5658 39.8465 39.5982 39.203 37.4513 38.5594Z" fill="#DFAF89"/>
</svg>
