<svg width="251" height="60" viewBox="0 0 251 60" fill="none" xmlns="http://www.w3.org/2000/svg">
<path d="M41.8845 16.9564V6.30561H91.0119V16.9564H97.3176V0H35.5789V16.9564H41.8845Z" fill="#DFAF89"/>
<path d="M91.0117 43.9126V53.6938H41.8842V43.9126H35.5786V59.9994H97.3173V43.9126H91.0117Z" fill="#DFAF89"/>
<path d="M0 24.2204V22.1265H11.516V24.2204H6.81039V37.2911H4.71649V24.2204H0Z" fill="#DFAF89"/>
<path d="M27.5899 37.291H25.4965V30.7132H17.3322V37.291H15.2383V22.1372H17.3322V28.6198H25.496V22.1372H27.5895V37.291H27.5899Z" fill="#DFAF89"/>
<path d="M42.246 37.291H32.8765V22.1372H42.246V24.2311H34.9704V28.5985H40.8608V30.6919H34.9704V35.1971H42.246V37.291Z" fill="#DFAF89"/>
<path d="M67.3719 29.5713V35.6839C67.0193 36.0369 66.6298 36.3273 66.2032 36.5565C65.7767 36.7856 65.3237 36.9669 64.8446 37.1012C64.365 37.2352 63.8663 37.3269 63.348 37.376C62.8302 37.4252 62.3028 37.4504 61.7672 37.4504C60.6955 37.4504 59.6907 37.2473 58.7533 36.8421C57.8155 36.4369 56.9959 35.8839 56.2946 35.1821C55.5929 34.4808 55.0394 33.6613 54.6342 32.7235C54.2285 31.7861 54.0264 30.7813 54.0264 29.7096C54.0264 28.9974 54.1177 28.3122 54.3011 27.6531C54.4842 26.9939 54.7451 26.377 55.0838 25.8026C55.422 25.2279 55.8259 24.7061 56.2946 24.237C56.7633 23.7683 57.285 23.3648 57.8598 23.0261C58.4342 22.6879 59.0511 22.427 59.7102 22.2435C60.3694 22.0605 61.055 21.9688 61.7672 21.9688C62.3237 21.9688 62.8667 22.027 63.3959 22.1431C63.9246 22.2596 64.4285 22.4235 64.908 22.6348C65.3876 22.8461 65.8402 23.1057 66.2667 23.4122C66.6932 23.7192 67.0824 24.0626 67.4354 24.4435L67.0441 24.8348C66.875 25.0039 66.6967 25.1309 66.5098 25.2152C66.3228 25.3 66.1063 25.3422 65.8593 25.3422C65.5424 25.3422 65.2493 25.2509 64.9815 25.0674C64.5163 24.75 64.0137 24.5035 63.4746 24.327C62.9354 24.1509 62.3659 24.0626 61.7668 24.0626C60.9841 24.0626 60.2507 24.2105 59.5672 24.5066C58.8833 24.8026 58.2859 25.2061 57.7746 25.7174C57.2633 26.2287 56.8598 26.8261 56.5637 27.51C56.2677 28.1935 56.1198 28.927 56.1198 29.7096C56.1198 30.4922 56.2733 31.2252 56.5798 31.9095C56.8868 32.593 57.3024 33.1908 57.8276 33.7017C58.3529 34.213 58.9629 34.6165 59.6572 34.9126C60.3515 35.2087 61.0902 35.3565 61.8728 35.3565C62.5215 35.3565 63.1346 35.2808 63.7128 35.1295C64.2911 34.9782 64.8193 34.7504 65.2989 34.4474V31.6665H64.4528C64.2059 31.6665 63.982 31.6222 63.7815 31.5343C63.5807 31.4461 63.4098 31.3278 63.2685 31.18C63.1272 31.0317 63.018 30.8596 62.9407 30.6622C62.8628 30.4648 62.8241 30.2565 62.8241 30.0378V29.5726H67.3719V29.5713Z" fill="#DFAF89"/>
<path d="M74.5521 37.291H72.4583V22.1372H77.8934C78.5069 22.1372 79.083 22.2537 79.6225 22.4859C80.1617 22.7185 80.6304 23.0342 81.0291 23.4324C81.4273 23.8307 81.743 24.2994 81.9756 24.8389C82.2082 25.3781 82.3247 25.9541 82.3247 26.568C82.3247 27.0615 82.2491 27.5324 82.0973 27.9798C81.9456 28.4276 81.7325 28.835 81.4573 29.2015C81.1821 29.568 80.8565 29.8872 80.4791 30.1585C80.1017 30.4298 79.6912 30.6363 79.2469 30.7771L84.069 37.291H82.6308C82.2221 37.291 81.8608 37.2114 81.5469 37.0532C81.233 36.8945 80.9738 36.6567 80.7695 36.3388L76.8039 30.988H74.5513V37.291H74.5521ZM74.5521 24.2307V28.8941H77.8939C78.2182 28.8941 78.5212 28.8345 78.8034 28.7146C79.0852 28.595 79.3321 28.4293 79.5439 28.2172C79.7552 28.0059 79.923 27.7589 80.046 27.4772C80.1691 27.1954 80.2312 26.892 80.2312 26.5676C80.2312 26.2437 80.1695 25.9407 80.046 25.6581C79.9225 25.3763 79.7552 25.1294 79.5439 24.9176C79.3325 24.7063 79.0856 24.5389 78.8034 24.4155C78.5217 24.2924 78.2182 24.2307 77.8939 24.2307H74.5521Z" fill="#DFAF89"/>
<path d="M91.8737 22.1372H93.9145L100.524 37.291H99.3184C98.9871 37.291 98.6875 37.2049 98.4197 37.0319C98.1515 36.8593 97.9506 36.6215 97.8171 36.318L96.7593 33.9067H89.0185L87.9715 36.318C87.8446 36.6141 87.6454 36.8501 87.3741 37.0262C87.1024 37.2028 86.8011 37.2906 86.4698 37.2906H85.2642L91.8737 22.1372ZM92.6985 25.4785L89.9385 31.8132H95.8497L93.0898 25.4785C92.9771 25.232 92.9102 24.9324 92.8889 24.5798C92.8745 24.7563 92.8519 24.9181 92.8202 25.0663C92.7885 25.2141 92.7476 25.352 92.6985 25.4785Z" fill="#DFAF89"/>
<path d="M116.407 37.291H114.705L106.044 25.4576C105.987 25.3802 105.94 25.2937 105.901 25.1985C105.863 25.1033 105.829 25.0068 105.801 24.9081C105.773 24.802 105.748 24.6898 105.727 24.5698V37.2914H103.633V22.1372H105.124C105.463 22.1372 105.759 22.1863 106.013 22.285C106.266 22.3837 106.467 22.5355 106.615 22.7398L113.965 32.8597C114.155 33.135 114.271 33.4841 114.314 33.9067V22.1372H116.408V37.291H116.407Z" fill="#DFAF89"/>
<path d="M121.684 37.291V22.1372H127.373C128.071 22.1372 128.742 22.2272 129.388 22.4068C130.032 22.5868 130.636 22.842 131.196 23.1733C131.756 23.505 132.267 23.9015 132.729 24.3628C133.191 24.825 133.588 25.3359 133.919 25.8963C134.25 26.4567 134.506 27.0593 134.686 27.7041C134.866 28.3493 134.955 29.0206 134.955 29.7189C134.955 30.4171 134.865 31.088 134.686 31.7337C134.506 32.3784 134.251 32.9815 133.919 33.5419C133.587 34.1023 133.191 34.6136 132.729 35.0749C132.267 35.5371 131.756 35.9319 131.196 36.2597C130.636 36.5875 130.032 36.841 129.388 37.021C128.742 37.2006 128.071 37.2906 127.373 37.2906H121.684V37.291ZM127.373 35.1971C128.128 35.1971 128.838 35.0541 129.504 34.7689C130.17 34.4832 130.752 34.0919 131.249 33.595C131.746 33.098 132.139 32.5167 132.428 31.8502C132.717 31.1841 132.862 30.4737 132.862 29.7193C132.862 28.9654 132.717 28.255 132.428 27.5889C132.139 26.9224 131.746 26.3411 131.249 25.8437C130.752 25.3468 130.17 24.9537 129.504 24.6646C128.838 24.3755 128.128 24.2311 127.373 24.2311H123.778V35.1975H127.373V35.1971Z" fill="#DFAF89"/>
<path d="M151.812 22.1372H153.853L160.462 37.291H159.256C158.925 37.291 158.626 37.2049 158.358 37.0319C158.089 36.8593 157.889 36.6215 157.755 36.318L156.697 33.9067H148.956L147.91 36.318C147.783 36.6141 147.583 36.8501 147.312 37.0262C147.04 37.2028 146.739 37.2906 146.408 37.2906H145.202L151.812 22.1372ZM152.636 25.4785L149.876 31.8132H155.788L153.028 25.4785C152.915 25.232 152.848 24.9324 152.827 24.5798C152.813 24.7563 152.79 24.9181 152.758 25.0663C152.726 25.2141 152.686 25.352 152.636 25.4785Z" fill="#DFAF89"/>
<path d="M164.882 31.3684C164.882 31.9189 164.986 32.4367 165.194 32.9232C165.402 33.4093 165.687 33.8345 166.05 34.1976C166.413 34.5606 166.838 34.8462 167.325 35.0541C167.811 35.2623 168.33 35.3662 168.879 35.3662C169.429 35.3662 169.947 35.2623 170.433 35.0541C170.92 34.8462 171.345 34.5606 171.708 34.1976C172.071 33.8345 172.356 33.4093 172.564 32.9232C172.772 32.4367 172.876 31.9184 172.876 31.3684V22.1372H174.97V31.3689C174.97 31.9332 174.898 32.4741 174.753 32.9923C174.609 33.5102 174.405 33.9954 174.14 34.4462C173.876 34.8975 173.557 35.308 173.184 35.6784C172.811 36.0488 172.399 36.3658 171.948 36.6297C171.497 36.8941 171.013 37.0988 170.495 37.2432C169.978 37.3875 169.437 37.4601 168.873 37.4601C168.317 37.4601 167.78 37.3875 167.262 37.2432C166.744 37.0988 166.26 36.8941 165.81 36.6297C165.359 36.3658 164.947 36.0484 164.573 35.6784C164.2 35.308 163.881 34.8975 163.617 34.4462C163.353 33.9954 163.149 33.5089 163.004 32.9871C162.86 32.4658 162.788 31.9263 162.788 31.3689V22.1372H164.882V31.3684H164.882Z" fill="#DFAF89"/>
<path d="M181.157 29.7086C181.157 30.4912 181.305 31.2243 181.601 31.9086C181.897 32.5921 182.3 33.1899 182.812 33.7008C183.323 34.2121 183.92 34.6156 184.604 34.9116C185.288 35.2077 186.021 35.3556 186.804 35.3556C187.41 35.3556 187.981 35.2677 188.517 35.0912C189.053 34.9156 189.553 34.6682 190.019 34.3512C190.279 34.1751 190.572 34.0869 190.896 34.0869C191.15 34.0869 191.37 34.1295 191.558 34.2138C191.744 34.2986 191.919 34.4221 192.081 34.5843L192.473 34.9756C192.12 35.356 191.73 35.6999 191.304 36.0064C190.877 36.3129 190.424 36.5721 189.945 36.7834C189.466 36.9951 188.962 37.159 188.433 37.2755C187.904 37.3921 187.361 37.4499 186.804 37.4499C185.733 37.4499 184.728 37.2468 183.79 36.8416C182.853 36.4364 182.033 35.8834 181.332 35.1816C180.63 34.4803 180.077 33.6608 179.671 32.723C179.266 31.7856 179.063 30.7808 179.063 29.7091C179.063 28.9969 179.155 28.3117 179.338 27.6526C179.521 26.9934 179.782 26.3765 180.121 25.8021C180.459 25.2274 180.863 24.7056 181.332 24.2365C181.8 23.7678 182.322 23.3643 182.897 23.0256C183.471 22.6874 184.088 22.4265 184.747 22.243C185.406 22.06 186.092 21.9683 186.804 21.9683C187.361 21.9683 187.904 22.0265 188.433 22.1426C188.962 22.2587 189.466 22.423 189.945 22.6343C190.425 22.8456 190.877 23.1052 191.304 23.4117C191.73 23.7187 192.119 24.0622 192.473 24.443L192.081 24.8343C191.919 24.9965 191.743 25.1217 191.553 25.2095C191.362 25.2978 191.143 25.3417 190.897 25.3417C190.58 25.3417 190.287 25.2504 190.019 25.0669C189.554 24.7495 189.051 24.503 188.512 24.3265C187.973 24.1504 187.403 24.0622 186.804 24.0622C186.022 24.0622 185.289 24.21 184.605 24.5061C183.921 24.8022 183.323 25.2056 182.812 25.7169C182.301 26.2282 181.897 26.8256 181.601 27.5095C181.305 28.193 181.157 28.926 181.157 29.7086Z" fill="#DFAF89"/>
<path d="M195.243 24.2204V22.1265H206.759V24.2204H202.053V37.2911H199.959V24.2204H195.243Z" fill="#DFAF89"/>
<path d="M212.956 37.291H210.862V22.1372H212.956V37.291Z" fill="#DFAF89"/>
<path d="M217.724 29.7086C217.724 28.9964 217.816 28.3112 217.999 27.6521C218.183 26.993 218.443 26.376 218.782 25.8017C219.12 25.2269 219.524 24.7051 219.993 24.236C220.462 23.7673 220.983 23.3639 221.558 23.0252C222.132 22.6869 222.749 22.426 223.408 22.2426C224.068 22.0595 224.753 21.9678 225.465 21.9678C226.178 21.9678 226.863 22.0595 227.522 22.2426C228.181 22.426 228.798 22.6865 229.373 23.0252C229.947 23.3634 230.469 23.7673 230.938 24.236C231.407 24.7051 231.811 25.2264 232.149 25.8017C232.487 26.376 232.748 26.993 232.931 27.6521C233.114 28.3116 233.206 28.9969 233.206 29.7086C233.206 30.4203 233.114 31.1064 232.931 31.7651C232.748 32.4247 232.487 33.0416 232.149 33.616C231.811 34.1907 231.407 34.712 230.938 35.1812C230.469 35.6503 229.948 36.0538 229.373 36.392C228.798 36.7303 228.181 36.9911 227.522 37.1746C226.862 37.3581 226.177 37.4498 225.465 37.4498C224.394 37.4498 223.389 37.2468 222.451 36.8416C221.514 36.4364 220.694 35.8833 219.993 35.1816C219.291 34.4803 218.738 33.6607 218.332 32.7229C217.927 31.7847 217.724 30.7803 217.724 29.7086ZM219.818 29.7086C219.818 30.4912 219.967 31.2242 220.262 31.9086C220.558 32.592 220.962 33.1899 221.473 33.7007C221.984 34.212 222.582 34.6155 223.265 34.9116C223.949 35.2077 224.683 35.3555 225.465 35.3555C226.248 35.3555 226.981 35.2072 227.665 34.9116C228.349 34.6155 228.946 34.212 229.458 33.7007C229.969 33.1899 230.372 32.592 230.668 31.9086C230.964 31.2247 231.112 30.4912 231.112 29.7086C231.112 28.926 230.964 28.1929 230.668 27.509C230.372 26.8251 229.969 26.2277 229.458 25.7164C228.946 25.2056 228.349 24.8017 227.665 24.5056C226.981 24.2095 226.248 24.0617 225.465 24.0617C224.683 24.0617 223.95 24.2095 223.265 24.5056C222.582 24.8017 221.984 25.2051 221.473 25.7164C220.962 26.2277 220.558 26.8251 220.262 27.509C219.967 28.1929 219.818 28.926 219.818 29.7086Z" fill="#DFAF89"/>
<path d="M250.401 37.291H248.698L240.037 25.4576C239.981 25.3802 239.933 25.2937 239.895 25.1985C239.856 25.1033 239.822 25.0068 239.794 24.9081C239.766 24.802 239.742 24.6898 239.72 24.5698V37.2914H237.627V22.1372H239.118C239.456 22.1372 239.753 22.1863 240.006 22.285C240.26 22.3837 240.461 22.5355 240.609 22.7398L247.959 32.8597C248.149 33.135 248.265 33.4841 248.308 33.9067V22.1372H250.401V37.291H250.401Z" fill="#DFAF89"/>
</svg>
