<svg width="51" height="48" viewBox="0 0 51 48" fill="none" xmlns="http://www.w3.org/2000/svg">
<path d="M25.0253 0.434359C25.1766 -0.0228549 25.8234 -0.0228555 25.9747 0.434358L31.5607 17.3136C31.6284 17.5183 31.8197 17.6565 32.0353 17.6565H50.0921C50.5787 17.6565 50.7786 18.281 50.3825 18.5636L35.7901 28.9728C35.6117 29.1001 35.5369 29.3288 35.6058 29.5369L41.1833 46.3906C41.3352 46.8497 40.8119 47.2356 40.4183 46.9548L25.7904 36.5202C25.6166 36.3963 25.3834 36.3963 25.2096 36.5202L10.5817 46.9548C10.1881 47.2356 9.66479 46.8497 9.8167 46.3906L15.3942 29.5369C15.4631 29.3288 15.3884 29.1001 15.2099 28.9728L0.617512 18.5636C0.221387 18.281 0.421294 17.6565 0.907874 17.6565H18.9647C19.1803 17.6565 19.3716 17.5183 19.4393 17.3136L25.0253 0.434359Z" fill="#657687"/>
</svg>
