<svg width="91" height="47" viewBox="0 0 91 47" fill="none" xmlns="http://www.w3.org/2000/svg">
<path d="M74.0027 10.0805C73.5886 10.2473 73.1909 10.4454 72.814 10.6748C72.7023 10.7434 72.5921 10.8134 72.4848 10.8864C71.9441 11.2513 71.4511 11.6803 71.0131 12.16C70.8388 12.3521 70.672 12.5532 70.5171 12.7618C69.5027 14.1173 68.9023 15.8006 68.9023 17.6223C68.9023 20.7073 70.6213 23.3901 73.1537 24.7665C74.2977 25.3876 75.6055 25.7422 76.9983 25.7466C77.0073 25.7466 77.0177 25.7466 77.0266 25.7466C77.9561 25.7466 78.8469 25.5887 79.6796 25.3012C80.1027 25.1553 80.5108 24.9765 80.8996 24.7665C83.4319 23.3901 85.1509 20.7073 85.1509 17.6223C85.1509 15.7991 84.5506 14.1173 83.5362 12.7618C83.3798 12.5532 83.2144 12.3521 83.0402 12.16C82.6037 11.6788 82.1092 11.2513 81.5684 10.8864C81.4597 10.8134 81.3509 10.7434 81.2392 10.6748C81.0784 10.578 80.916 10.4857 80.7477 10.3993C80.5793 10.3129 80.4095 10.2324 80.2367 10.1579C79.8896 10.009 79.5292 9.88385 79.1582 9.78256C78.479 9.59785 77.764 9.49805 77.0266 9.49805C76.7466 9.49805 76.471 9.51294 76.1984 9.53976C75.4298 9.61721 74.6924 9.80193 74.0012 10.079L74.0027 10.0805Z" fill="#DFAF89"/>
<path d="M89.3979 32.8246C89.3234 32.6489 89.2415 32.4761 89.1551 32.3063C88.9852 31.9681 88.7961 31.6404 88.586 31.3291C88.4907 31.1876 88.3879 31.049 88.2851 30.912C88.1779 30.772 88.0662 30.6349 87.9515 30.5023C87.7176 30.2312 87.4703 29.9735 87.2052 29.7337C86.9966 29.5445 86.7791 29.3643 86.5527 29.196C86.298 29.0053 86.0343 28.8295 85.7588 28.6671C85.6679 28.6135 85.5741 28.5599 85.4817 28.5093C84.8874 28.186 84.2528 27.9313 83.5869 27.7525C82.9211 27.5738 82.2225 27.471 81.5045 27.4531C80.922 27.7198 80.3128 27.9372 79.6797 28.0981C78.8306 28.3126 77.9428 28.4288 77.0267 28.4288C77.0178 28.4288 77.0074 28.4288 76.9984 28.4288C75.412 28.4243 73.9075 28.0743 72.5505 27.4546C71.6522 27.477 70.7868 27.6319 69.9735 27.903C69.4864 28.0654 69.0171 28.2694 68.5717 28.5122C68.4779 28.5629 68.3855 28.615 68.2947 28.6701C68.0206 28.8325 67.7554 29.0098 67.5007 29.1989C67.1611 29.4522 66.8423 29.7292 66.5429 30.0286C66.3895 30.1821 66.245 30.3415 66.1035 30.5053C65.9888 30.6379 65.8771 30.7749 65.7698 30.915C65.6655 31.0505 65.5642 31.189 65.4689 31.332C65.39 31.4497 65.314 31.5689 65.2395 31.6896C65.1829 31.7834 65.1293 31.8787 65.0756 31.9756C65.0146 32.0858 64.9565 32.1975 64.8999 32.3092C64.815 32.479 64.7315 32.6518 64.6571 32.8276C64.5617 33.0511 64.4783 33.2819 64.4023 33.5143C64.4366 33.8912 64.4545 34.2725 64.4589 34.6568C64.4589 34.7149 64.4604 34.7715 64.4604 34.8296V46.2504H90.0905V36.2567C90.0905 35.0412 89.8447 33.8837 89.3994 32.8291L89.3979 32.8246Z" fill="#DFAF89"/>
<path d="M61.6766 33.2745C61.62 32.8321 61.5395 32.3972 61.4352 31.9726C61.252 31.2189 60.9973 30.4905 60.68 29.7993C60.616 29.6608 60.5504 29.5237 60.4819 29.3882C60.3449 29.1171 60.1974 28.8519 60.041 28.5942C59.8399 28.2635 59.6239 27.9447 59.393 27.6349C59.0325 27.1523 58.6363 26.6994 58.2103 26.2764C57.9541 26.0232 57.6859 25.7818 57.4074 25.551C56.962 25.183 56.4898 24.8479 55.9952 24.547C54.4758 23.6234 52.736 23.0305 50.874 22.8607C50.518 22.828 50.1575 22.8086 49.7925 22.8086C49.2741 22.9933 48.7394 23.1467 48.1927 23.2644C47.3228 23.4521 46.4201 23.5534 45.495 23.5534C44.57 23.5534 43.6673 23.4521 42.7974 23.2644C42.2507 23.1467 41.7159 22.9948 41.1975 22.8086C40.8326 22.8086 40.4721 22.828 40.1161 22.8607C38.2541 23.0305 36.5127 23.6249 34.9948 24.547C34.4988 24.8479 34.0281 25.1845 33.5827 25.551C33.2862 25.7952 33.0017 26.0544 32.7291 26.327C32.6278 26.4283 32.5265 26.5326 32.4282 26.6384C32.1333 26.9556 31.8562 27.2878 31.5955 27.6349C31.3647 27.9433 31.1487 28.2635 30.9476 28.5942C30.7912 28.8519 30.6437 29.1171 30.5066 29.3882C30.4381 29.5237 30.3711 29.6608 30.3085 29.7993C29.9912 30.4905 29.7365 31.2174 29.5533 31.9726C29.4595 32.3584 29.3835 32.7502 29.3284 33.1494C29.4654 33.6395 29.5727 34.14 29.6442 34.6539C29.7172 35.1768 29.7574 35.71 29.7574 36.2523V46.246H61.7823V34.8252C61.7823 34.7671 61.7793 34.7105 61.7779 34.6524C61.7719 34.1862 61.7376 33.7259 61.6795 33.273L61.6766 33.2745Z" fill="#DFAF89"/>
<path d="M55.5023 9.18045C55.4516 8.85273 55.3861 8.52949 55.3042 8.21221C55.1507 7.61786 54.9437 7.04585 54.6905 6.49916C54.6264 6.36212 54.5594 6.22508 54.4908 6.09101C54.0842 5.30748 53.5807 4.58056 52.9923 3.93258C52.9819 3.92066 52.97 3.90874 52.958 3.89683C52.7495 3.67041 52.532 3.45293 52.3056 3.24587C52.1849 3.13713 52.0628 3.03137 51.9377 2.9271C51.6874 2.72004 51.4267 2.52639 51.1586 2.34466C50.889 2.16293 50.6104 1.99312 50.3229 1.83671C50.0354 1.6803 49.7405 1.53879 49.4381 1.41068C48.2256 0.898258 46.8939 0.615234 45.4951 0.615234C44.0964 0.615234 42.7647 0.898258 41.5522 1.41068C41.2498 1.53879 40.9533 1.68179 40.6673 1.83671C40.3798 1.99312 40.1013 2.16144 39.8317 2.34466C39.5621 2.52639 39.3014 2.72153 39.0526 2.9271C38.9275 3.02988 38.8053 3.13713 38.6847 3.24587C38.4568 3.45293 38.2393 3.67041 38.0322 3.89683C38.0218 3.90874 38.0099 3.92066 37.998 3.93258C37.4096 4.58056 36.9061 5.30599 36.4994 6.09101C36.4294 6.22508 36.3624 6.36063 36.2998 6.49916C36.0466 7.04585 35.8395 7.61786 35.6861 8.21221C35.6042 8.52949 35.5386 8.85125 35.488 9.18045C35.488 9.1879 35.485 9.19534 35.4835 9.2013C35.4329 9.53646 35.3971 9.87758 35.3793 10.2232C35.3703 10.396 35.3658 10.5702 35.3658 10.7445C35.3658 14.3613 37.2636 17.5341 40.1162 19.3261C40.6107 19.6375 41.1351 19.9071 41.6832 20.129C42.0452 20.2765 42.4176 20.4031 42.7975 20.5074C43.657 20.7442 44.5612 20.8738 45.4951 20.8738C46.4291 20.8738 47.3333 20.7442 48.1928 20.5074C48.5741 20.4016 48.9465 20.2765 49.307 20.129C49.8552 19.9056 50.3781 19.6375 50.8741 19.3261C53.7267 17.5341 55.6244 14.3613 55.6244 10.7445C55.6244 10.5702 55.62 10.396 55.611 10.2232C55.5932 9.87758 55.5589 9.53646 55.5068 9.2013C55.5068 9.19385 55.5038 9.18641 55.5023 9.18045Z" fill="#DFAF89"/>
<path d="M26.5948 33.3907C26.5293 33.2 26.4593 33.0093 26.3803 32.8246C26.3059 32.6489 26.2239 32.4761 26.1375 32.3063C26.0809 32.193 26.0228 32.0828 25.9618 31.9726C25.9081 31.8772 25.8545 31.7804 25.7979 31.6866C25.7249 31.5659 25.6475 31.4468 25.5685 31.3291C25.4732 31.1876 25.3704 31.049 25.2676 30.912C25.1604 30.772 25.0486 30.6349 24.9339 30.5023C24.7001 30.2312 24.4528 29.9735 24.1876 29.7337C23.9791 29.5445 23.7616 29.3643 23.5352 29.196C23.2805 29.0053 23.0168 28.8295 22.7412 28.6671C22.6504 28.6135 22.5565 28.5599 22.4642 28.5093C21.8698 28.186 21.2353 27.9313 20.5694 27.7525C19.9036 27.5738 19.2049 27.471 18.4869 27.4531C17.1225 28.0773 15.606 28.4288 14.0092 28.4288C14.0017 28.4288 13.9943 28.4288 13.9869 28.4288C13.0618 28.4273 12.1636 28.3082 11.3056 28.0862C10.6919 27.9268 10.1005 27.7138 9.53294 27.4546C8.59747 27.477 7.69775 27.6453 6.85613 27.9387C6.7161 27.9879 6.57757 28.04 6.44053 28.0951C6.16644 28.2069 5.8998 28.3305 5.64061 28.4675C5.38142 28.6046 5.12968 28.7535 4.88687 28.9159C4.64407 29.0783 4.40871 29.2511 4.18378 29.4343C3.84564 29.7099 3.52835 30.0108 3.2349 30.334C2.76121 30.8554 2.34859 31.4333 2.01045 32.0575C1.88383 32.2914 1.76616 32.5312 1.66039 32.7785C1.59038 32.9423 1.52335 33.1091 1.46377 33.2775C1.34162 33.6156 1.24033 33.9627 1.16138 34.3187C1.02135 34.9414 0.948364 35.5893 0.948364 36.2537V46.2474H27.073V36.2537C27.073 35.707 27.0209 35.1737 26.9255 34.6554C26.8466 34.2219 26.7349 33.8003 26.5948 33.3922V33.3907Z" fill="#DFAF89"/>
<path d="M8.11177 23.2113C8.43054 23.548 8.77762 23.8563 9.14853 24.1334C9.35708 24.2898 9.57307 24.4358 9.79651 24.5713C9.90823 24.6399 10.0214 24.7039 10.1361 24.7665C10.2508 24.829 10.3685 24.8886 10.4862 24.9452C10.7513 25.0733 11.0239 25.185 11.304 25.2834C11.6496 25.4055 12.0056 25.5068 12.3705 25.5813C12.6357 25.6349 12.9038 25.6766 13.1779 25.7049C13.4431 25.7317 13.7127 25.7451 13.9853 25.7466C13.9927 25.7466 14.0002 25.7466 14.0076 25.7466C15.4093 25.7466 16.7291 25.3921 17.8806 24.7665C20.4129 23.3901 22.1319 20.7073 22.1319 17.6223C22.1319 15.7991 21.5316 14.1173 20.5172 12.7618C20.3608 12.5532 20.1954 12.3521 20.0211 12.16C19.5847 11.6788 19.0901 11.2513 18.5494 10.8864C18.4407 10.8134 18.3319 10.7434 18.2202 10.6748C17.8374 10.4425 17.4352 10.2414 17.0151 10.073C16.315 9.79448 15.5657 9.60977 14.7852 9.53529C14.529 9.51145 14.2698 9.49805 14.0076 9.49805C13.2494 9.49805 12.515 9.60381 11.8179 9.79895C11.2787 9.9494 10.7603 10.1535 10.2717 10.4052C10.1093 10.4886 9.94994 10.5795 9.79353 10.6733C9.64755 10.7627 9.50306 10.8566 9.36304 10.9534C9.08299 11.1485 8.81486 11.3615 8.56163 11.5909C8.49907 11.6475 8.4365 11.7056 8.37394 11.7652C6.83667 13.2429 5.88184 15.3209 5.88184 17.6208C5.88184 19.6184 6.6028 21.4491 7.79895 22.8642C7.89876 22.9819 8.00154 23.0966 8.1073 23.2098L8.11177 23.2113Z" fill="#DFAF89"/>
</svg>
